<?xml version="1.0" encoding="UTF-8"?>
<svg version="1.1" xmlns="http://www.w3.org/2000/svg" width="3000" height="3000">
<path d="M0 0 C990 0 1980 0 3000 0 C3000 990 3000 1980 3000 3000 C2010 3000 1020 3000 0 3000 C0 2010 0 1020 0 0 Z " fill="#FEFEFE" transform="translate(0,0)"/>
<path d="M0 0 C3.32947336 0.00536697 6.65881189 0.00001003 9.98828125 -0.00634766 C31.22763415 -0.01556068 52.21823992 0.92954885 73.33203125 3.25537109 C74.31793243 3.36329987 75.30383362 3.47122864 76.3196106 3.58242798 C162.70860497 13.16928727 246.96654233 42.20881192 321.33203125 87.13037109 C322.98695886 88.12129043 324.64190583 89.11217742 326.296875 90.10302734 C351.91222968 105.52306958 376.44070317 122.88981516 399.33203125 142.13037109 C399.84765625 142.5610791 400.36328125 142.99178711 400.89453125 143.43554688 C416.96791277 156.88847439 433.03831063 171.16661046 446.640625 187.16162109 C448.57070967 189.40818616 450.57621264 191.57621014 452.58203125 193.75537109 C458.16880627 199.95659683 463.25459904 206.51215382 468.33203125 213.13037109 C468.82106934 213.76249512 469.31010742 214.39461914 469.81396484 215.04589844 C505.98242602 261.86808685 529.03820493 315.73068614 542.33203125 373.13037109 C542.52071777 373.92765625 542.7094043 374.72494141 542.90380859 375.54638672 C546.47088042 391.78366992 546.67078359 408.21161249 546.58203125 424.75537109 C546.57638153 426.35557098 546.57638153 426.35557098 546.57061768 427.98809814 C546.50793132 443.12897979 546.30972331 458.10119986 544.33203125 473.13037109 C544.14155649 474.62497353 543.95130758 476.11960475 543.76123047 477.61425781 C535.32023429 543.33071702 522.98674373 635.17379201 468.0859375 679.88818359 C463.48292702 683.1482222 458.83582131 685.83768899 453.33203125 687.13037109 C453.81055816 682.9636307 454.28996831 678.79699237 454.76953125 674.63037109 C454.9715918 672.87080078 454.9715918 672.87080078 455.17773438 671.07568359 C455.30986328 669.92841797 455.44199219 668.78115234 455.578125 667.59912109 C455.69857178 666.55175781 455.81901855 665.50439453 455.94311523 664.42529297 C456.22523589 662.03514838 456.53773377 659.64852682 456.86865234 657.26464844 C457.401106 653.00692231 457.49301576 648.80023936 457.5 644.51318359 C457.50432541 643.70756989 457.50865082 642.90195618 457.5131073 642.07192993 C457.52318706 639.46634978 457.52328949 636.86096681 457.51953125 634.25537109 C457.51762787 632.90965027 457.51762787 632.90965027 457.51568604 631.53674316 C457.39419074 586.43889575 449.75534573 541.40567222 436.03662109 498.41845703 C435.28973148 495.99300678 434.61024114 493.55607962 433.9453125 491.10693359 C415.34362572 422.61100283 375.21116844 354.81288028 318.33203125 311.13037109 C317.24424304 310.23444581 316.15983658 309.334405 315.078125 308.43115234 C300.82259204 296.60810334 285.23072608 286.44132173 269.19091797 277.20458984 C267.92797294 276.47475558 266.66929881 275.73749075 265.41455078 274.99365234 C233.72476793 256.22145133 198.59570469 244.16858381 163.33203125 234.13037109 C162.25695313 233.8200293 161.181875 233.5096875 160.07421875 233.18994141 C117.40858143 220.93292718 72.91899934 212.73981628 28.74935913 208.46600342 C26.42475509 208.23769279 24.10088907 208.00176749 21.77774048 207.75909424 C-0.1280421 205.47679908 -21.77451843 204.68134902 -43.79064941 204.80780029 C-46.97776469 204.82130155 -50.16474222 204.81594082 -53.3518734 204.81094456 C-71.87615294 204.78890638 -90.2204085 205.26289958 -108.66796875 207.13037109 C-109.53925415 207.21707062 -110.41053955 207.30377014 -111.30822754 207.39309692 C-116.89628992 207.96026627 -122.47083689 208.6120277 -128.04296875 209.31787109 C-129.29708557 209.47551941 -129.29708557 209.47551941 -130.57653809 209.63635254 C-169.63296554 214.60337298 -208.43174985 223.30782605 -245.66796875 236.13037109 C-246.86164063 236.53481445 -248.0553125 236.93925781 -249.28515625 237.35595703 C-291.82628557 251.78084835 -333.36783251 270.57771194 -371.66796875 294.13037109 C-373.05048828 294.97752686 -373.05048828 294.97752686 -374.4609375 295.84179688 C-392.43179963 306.88178802 -409.75063079 318.5467512 -426.66796875 331.13037109 C-428.20904297 332.27119141 -428.20904297 332.27119141 -429.78125 333.43505859 C-441.00467221 341.78944705 -451.95175993 350.42592965 -462.5859375 359.51708984 C-465.40431904 361.92118422 -468.27968828 364.24805104 -471.16796875 366.56787109 C-477.02521256 371.33697672 -482.5239775 376.45380313 -488.03613281 381.61181641 C-490.15725191 383.58568846 -492.30065322 385.53437402 -494.44458008 387.48339844 C-499.01589963 391.64125736 -503.46731646 395.8838646 -507.796875 400.29443359 C-509.74725251 402.20816518 -511.77676449 403.98247249 -513.85546875 405.75537109 C-516.34413061 407.88222357 -518.50010801 410.00980208 -520.54296875 412.56787109 C-521.24421875 413.41349609 -521.94546875 414.25912109 -522.66796875 415.13037109 C-523.32796875 415.13037109 -523.98796875 415.13037109 -524.66796875 415.13037109 C-524.90427002 415.69336914 -525.14057129 416.25636719 -525.3840332 416.83642578 C-526.96603981 419.66292019 -528.89660884 421.56641709 -531.2109375 423.83349609 C-532.12037109 424.73197266 -533.02980469 425.63044922 -533.96679688 426.55615234 C-534.92931406 427.4979404 -535.89220694 428.43934465 -536.85546875 429.38037109 C-542.46033215 434.88079604 -548.00885075 440.34943836 -553.11450195 446.32080078 C-555.55437702 449.16291205 -558.11458167 451.89055294 -560.66796875 454.63037109 C-564.42914772 458.68894291 -568.1749594 462.75232159 -571.78515625 466.94677734 C-573.27581783 468.67557366 -574.78506259 470.38834472 -576.30078125 472.09521484 C-587.6692137 484.98625594 -597.7254687 498.61486476 -605.86328125 513.77490234 C-607.39062876 516.6147108 -608.98260009 519.3824874 -610.66796875 522.13037109 C-613.25947642 519.75737166 -614.9878489 517.2104585 -616.8203125 514.22021484 C-617.42576904 513.23931885 -618.03122559 512.25842285 -618.6550293 511.24780273 C-619.29867432 510.19842529 -619.94231934 509.14904785 -620.60546875 508.06787109 C-634.2631834 486.01907769 -648.9159441 464.73546227 -664.66796875 444.13037109 C-665.51560791 443.02145508 -665.51560791 443.02145508 -666.38037109 441.89013672 C-673.10927972 433.11152188 -679.94833797 424.46602913 -687.15625 416.07568359 C-689.54328371 413.27658031 -691.86157026 410.43352019 -694.16796875 407.56787109 C-698.2983843 402.4899767 -702.67628643 397.68473256 -707.125 392.88818359 C-709.11785114 390.72696561 -711.0650466 388.5469014 -712.98046875 386.31787109 C-723.18994371 374.62637557 -734.08312628 363.61166001 -745.04296875 352.63037109 C-745.65433685 352.01641479 -746.26570496 351.4024585 -746.89559937 350.76989746 C-753.309838 344.33427839 -759.72991218 338.00656657 -766.66796875 332.13037109 C-768.27565248 330.67591592 -769.8803659 329.21816214 -771.48046875 327.75537109 C-776.72977852 323.02461016 -782.1642082 318.56040058 -787.66796875 314.13037109 C-788.80110572 313.20498702 -789.93390324 312.27918716 -791.06640625 311.35302734 C-834.11471308 276.3161486 -882.7074315 248.54877651 -934.66796875 229.13037109 C-936.0758667 228.59669922 -936.0758667 228.59669922 -937.51220703 228.05224609 C-978.25057022 212.62602316 -1021.09573783 205.68573757 -1064.60546875 205.75537109 C-1065.77028778 205.75525024 -1066.93510681 205.75512939 -1068.13522339 205.75500488 C-1086.01514919 205.78138347 -1103.08797262 206.70072545 -1120.66796875 210.13037109 C-1122.36145666 210.42505641 -1124.05544597 210.71687953 -1125.75 211.00537109 C-1130.76012088 211.89448401 -1135.71303694 212.97485271 -1140.66796875 214.13037109 C-1142.2926709 214.50838867 -1142.2926709 214.50838867 -1143.95019531 214.89404297 C-1174.31334446 222.0881571 -1203.95989942 231.89552926 -1232.66796875 244.13037109 C-1233.50440918 244.48583008 -1234.34084961 244.84128906 -1235.20263672 245.20751953 C-1245.11109636 249.44802968 -1254.82026512 254.04280911 -1264.40380859 258.97167969 C-1266.90818572 260.25330292 -1269.42295942 261.51334411 -1271.9375 262.77490234 C-1292.575028 273.22654128 -1312.0198168 285.45505967 -1330.66796875 299.13037109 C-1331.70566406 299.88447266 -1332.74335937 300.63857422 -1333.8125 301.41552734 C-1339.50539556 305.61470465 -1345.04481546 309.99368582 -1350.54296875 314.44287109 C-1351.44221069 315.16978149 -1351.44221069 315.16978149 -1352.35961914 315.91137695 C-1354.47464783 317.63671486 -1356.57269261 319.38108044 -1358.66796875 321.13037109 C-1359.40332352 321.74025375 -1359.40332352 321.74025375 -1360.15353394 322.36245728 C-1369.06602959 329.7760187 -1377.45166915 337.59734583 -1385.61987305 345.8215332 C-1387.48980016 347.70225637 -1389.37029513 349.57193928 -1391.25195312 351.44091797 C-1398.18615989 358.36755401 -1404.58688695 365.4359907 -1410.66796875 373.13037109 C-1411.60234313 374.23254285 -1412.54373644 375.32885645 -1413.49609375 376.41552734 C-1472.06425504 443.57998327 -1506.69042519 534.5532106 -1517.45507812 633.03216553 C-1517.66525635 635.10363826 -1517.89072529 637.1728708 -1518.12109375 639.2421875 C-1526.29330798 713.38620952 -1520.9106189 791.66052677 -1503.66796875 864.13037109 C-1503.48169922 864.91782715 -1503.29542969 865.7052832 -1503.10351562 866.51660156 C-1486.90145311 934.88044896 -1464.50938753 1004.33932122 -1428.8359375 1065.26708984 C-1427.02342263 1068.40789591 -1425.41399758 1071.62721424 -1423.8125 1074.88037109 C-1420.83586244 1080.88463686 -1417.57213118 1086.6723947 -1414.16796875 1092.44287109 C-1413.56267334 1093.4726709 -1412.95737793 1094.5024707 -1412.33374023 1095.56347656 C-1410.45164913 1098.75634009 -1408.56119062 1101.94409694 -1406.66796875 1105.13037109 C-1406.08418457 1106.11602051 -1405.50040039 1107.10166992 -1404.89892578 1108.1171875 C-1390.46211074 1132.42344523 -1374.68927413 1155.70214439 -1356.22265625 1177.13818359 C-1353.77111513 1180.0095605 -1351.4023747 1182.93315467 -1349.04296875 1185.88037109 C-1345.59854997 1190.11823634 -1341.95029253 1193.99458649 -1338.00390625 1197.76708984 C-1336.04782858 1199.74606474 -1334.2365986 1201.75908692 -1332.421875 1203.86474609 C-1328.54439989 1208.33392058 -1324.42419665 1212.52179159 -1320.23046875 1216.69287109 C-1319.1621582 1217.76698242 -1319.1621582 1217.76698242 -1318.07226562 1218.86279297 C-1314.04291646 1222.8848227 -1309.91587006 1226.72338439 -1305.60375977 1230.43969727 C-1302.43696706 1233.20549869 -1299.40658234 1236.11341073 -1296.35546875 1239.00537109 C-1291.13195373 1243.92204117 -1285.81567685 1248.57732814 -1280.2109375 1253.05615234 C-1277.61785528 1255.17124705 -1275.14011975 1257.37555205 -1272.66796875 1259.63037109 C-1267.49597794 1264.33663762 -1262.10449471 1268.73520785 -1256.66796875 1273.13037109 C-1254.89668302 1274.58815492 -1253.12585241 1276.04649189 -1251.35546875 1277.50537109 C-1244.30341483 1283.27523339 -1237.11837419 1288.87459613 -1229.93701172 1294.48193359 C-1223.10379869 1299.81897922 -1216.32102501 1305.20823302 -1209.60546875 1310.69287109 C-1203.76617289 1315.4598142 -1197.85294113 1320.10927878 -1191.86328125 1324.68505859 C-1182.29026642 1331.99867718 -1172.91695224 1339.53684009 -1163.63598633 1347.21704102 C-1159.50760467 1350.62949112 -1155.34401445 1353.97592827 -1151.09375 1357.23583984 C-1140.2713342 1365.68812916 -1129.7332148 1374.52032235 -1119.11328125 1383.22412109 C-1115.0413561 1386.55899154 -1110.96715579 1389.89065676 -1106.875 1393.20068359 C-1099.9384964 1398.81427172 -1093.04169617 1404.46305724 -1086.24829102 1410.24926758 C-1082.94124559 1413.06341382 -1079.60147811 1415.83076874 -1076.23046875 1418.56787109 C-1071.36588251 1422.52610066 -1066.60734697 1426.59686171 -1061.85742188 1430.69091797 C-1058.35580524 1433.70269097 -1054.82019282 1436.660888 -1051.23046875 1439.56787109 C-1045.54105335 1444.18947833 -1040.01949469 1448.99339667 -1034.4921875 1453.80615234 C-1030.90028754 1456.93329295 -1027.28758309 1460.03539057 -1023.66796875 1463.13037109 C-1003.74046127 1480.19213472 -1003.74046127 1480.19213472 -995.91796875 1487.38037109 C-992.54933733 1490.47239935 -989.12046492 1493.40841469 -985.54296875 1496.25537109 C-979.69714744 1500.96567316 -974.2843951 1506.10034554 -968.85693359 1511.28320312 C-964.83255945 1515.12202626 -960.74365527 1518.85253455 -956.54125977 1522.49560547 C-953.80483167 1524.88360528 -951.14048305 1527.34545196 -948.48046875 1529.81787109 C-947.35288437 1530.86216329 -946.22527961 1531.90643349 -945.09765625 1532.95068359 C-944.53014648 1533.47694336 -943.96263672 1534.00320313 -943.37792969 1534.54541016 C-940.62380463 1537.09820569 -937.86468603 1539.64558227 -935.10546875 1542.19287109 C-934.57139404 1542.6864209 -934.03731934 1543.1799707 -933.48706055 1543.68847656 C-930.80883059 1546.16187445 -928.12495104 1548.62866277 -925.4296875 1551.08349609 C-920.65511694 1555.4343796 -915.93099042 1559.801435 -911.41137695 1564.41992188 C-909.68264126 1566.11597597 -907.89138026 1567.68273765 -906.046875 1569.25146484 C-901.25074514 1573.42234757 -896.81071775 1577.91379858 -892.35546875 1582.44287109 C-890.77839121 1584.04544706 -889.19906279 1585.64581196 -887.6171875 1587.24365234 C-886.58597778 1588.2922644 -886.58597778 1588.2922644 -885.53393555 1589.36206055 C-883.58828882 1591.30605636 -883.58828882 1591.30605636 -880.66796875 1593.13037109 C-880.66796875 1593.79037109 -880.66796875 1594.45037109 -880.66796875 1595.13037109 C-879.79141632 1595.51992981 -879.79141632 1595.51992981 -878.89715576 1595.9173584 C-876.50859193 1597.21709603 -874.92321477 1598.62132654 -873.00097656 1600.53857422 C-871.95034027 1601.57975403 -871.95034027 1601.57975403 -870.878479 1602.64196777 C-870.13354187 1603.39095337 -869.38860474 1604.13993896 -868.62109375 1604.91162109 C-867.84989197 1605.68090942 -867.07869019 1606.45019775 -866.28411865 1607.24279785 C-864.65781746 1608.86773937 -863.03403399 1610.49520409 -861.41259766 1612.125 C-858.92050607 1614.62782285 -856.41790283 1617.11977672 -853.9140625 1619.61083984 C-852.33659763 1621.18962577 -850.75975298 1622.7690317 -849.18359375 1624.34912109 C-848.43055969 1625.09810669 -847.67752563 1625.84709229 -846.90167236 1626.61877441 C-845.86994904 1627.65995422 -845.86994904 1627.65995422 -844.81738281 1628.72216797 C-843.90282318 1629.63911438 -843.90282318 1629.63911438 -842.9697876 1630.57458496 C-841.66796875 1632.13037109 -841.66796875 1632.13037109 -841.66796875 1634.13037109 C-841.10722656 1634.35337891 -840.54648438 1634.57638672 -839.96875 1634.80615234 C-836.96349176 1636.53583408 -835.14490844 1638.71191901 -832.85546875 1641.31787109 C-828.37305835 1646.34699267 -823.71023171 1651.14619617 -818.91796875 1655.88037109 C-814.48329613 1660.26984258 -810.16644824 1664.67298721 -806.13671875 1669.44287109 C-804.55533906 1671.25977542 -802.88599679 1672.9424839 -801.16796875 1674.63037109 C-798.19820854 1677.55424097 -795.46290496 1680.61618663 -792.7421875 1683.77099609 C-790.14167172 1686.72902157 -787.47047037 1689.61711501 -784.79296875 1692.50537109 C-777.09045484 1700.82646527 -769.53753301 1709.24812828 -762.1862793 1717.88134766 C-759.01752559 1721.5912557 -755.78434475 1725.22670152 -752.48046875 1728.81787109 C-748.50785907 1733.15047879 -744.76456177 1737.61892481 -741.07421875 1742.19287109 C-738.37018105 1745.49390413 -735.58685643 1748.71802323 -732.79296875 1751.94287109 C-728.28265818 1757.16164858 -723.96957952 1762.5001077 -719.74267578 1767.94995117 C-716.64533046 1771.92867752 -713.44790554 1775.8011626 -710.16796875 1779.63037109 C-705.95506156 1784.5537544 -701.90822654 1789.58180133 -697.92919922 1794.69555664 C-694.44642852 1799.16402874 -690.88323253 1803.56048761 -687.29296875 1807.94287109 C-682.74151033 1813.50576472 -678.32178875 1819.15213382 -673.98046875 1824.88037109 C-669.50638206 1830.78334762 -664.90829464 1836.52074904 -660.125 1842.17724609 C-657.42424101 1845.42330937 -654.822283 1848.73482169 -652.23046875 1852.06787109 C-648.20607683 1857.23753611 -644.05289122 1862.26870729 -639.78662109 1867.23999023 C-636.99308002 1870.51229702 -634.31349342 1873.84713702 -631.69482422 1877.26074219 C-615.4172118 1899.86034036 -615.4172118 1899.86034036 -592.66796875 1913.13037109 C-584.69310967 1913.95535652 -579.01617099 1911.43841515 -572.67578125 1906.61474609 C-562.81256699 1897.52912963 -555.80763211 1884.91142973 -548.453125 1873.79394531 C-540.09993762 1861.20118386 -531.20811878 1848.99553923 -522.06445312 1836.96777344 C-520.7669206 1835.26056543 -519.47492593 1833.54930124 -518.18359375 1831.83740234 C-504.71206877 1814.11750429 -490.26716332 1797.10816404 -475.10546875 1780.81396484 C-472.53513293 1777.98412396 -470.09574558 1775.08272113 -467.66796875 1772.13037109 C-467.33796875 1772.79037109 -467.00796875 1773.45037109 -466.66796875 1774.13037109 C-467.58911133 1776.35083008 -467.58911133 1776.35083008 -469.0625 1779.12646484 C-469.60036133 1780.14925537 -470.13822266 1781.1720459 -470.69238281 1782.22583008 C-471.28245117 1783.32870361 -471.87251953 1784.43157715 -472.48046875 1785.56787109 C-473.08213867 1786.70877197 -473.68380859 1787.84967285 -474.30371094 1789.02514648 C-476.08386539 1792.39783411 -477.87392717 1795.7650537 -479.66796875 1799.13037109 C-481.25421197 1802.10800456 -482.83879599 1805.08648106 -484.41796875 1808.06787109 C-484.79848389 1808.78620117 -485.17899902 1809.50453125 -485.57104492 1810.24462891 C-491.76695159 1822.02878334 -497.6360268 1833.98445077 -503.5670166 1845.90336609 C-505.58643736 1849.96149334 -507.61130141 1854.01682448 -509.64169312 1858.06947327 C-528.38519519 1895.49245205 -546.12596098 1933.25218538 -561.66796875 1972.13037109 C-561.92108826 1972.76104492 -562.17420776 1973.39171875 -562.43499756 1974.04150391 C-570.41478268 1993.93953853 -577.44760765 2014.04296177 -583.82373047 2034.51367188 C-591.62718382 2059.37031235 -591.62718382 2059.37031235 -599.66796875 2065.13037109 C-602.78660623 2066.68968983 -605.31600068 2066.82495606 -608.66796875 2066.13037109 C-617.62184982 2061.99698771 -624.44011628 2056.0994371 -631.23046875 2049.06787109 C-632.5928064 2047.68112183 -632.5928064 2047.68112183 -633.98266602 2046.26635742 C-640.78175717 2039.25888835 -646.93514674 2032.02914665 -652.66796875 2024.13037109 C-653.61718445 2022.87157337 -654.56780149 2021.6138316 -655.51953125 2020.35693359 C-658.98081377 2015.74646356 -662.30216736 2011.0423498 -665.60546875 2006.31787109 C-666.22518555 2005.43204346 -666.84490234 2004.54621582 -667.48339844 2003.63354492 C-671.10947342 1998.42811071 -674.63232208 1993.18290121 -677.98828125 1987.79833984 C-681.74979346 1981.82365883 -685.72306517 1975.98487545 -689.66796875 1970.13037109 C-690.18198242 1969.36563477 -690.69599609 1968.60089844 -691.22558594 1967.81298828 C-698.06719514 1957.65148925 -705.08645895 1947.75258092 -712.66796875 1938.13037109 C-714.34067606 1935.96833251 -716.00419517 1933.79928805 -717.66796875 1931.63037109 C-718.50246255 1930.54562672 -719.33709771 1929.46099107 -720.171875 1928.37646484 C-721.82750761 1926.2243364 -723.48098102 1924.07057445 -725.1328125 1921.91552734 C-736.02066486 1907.71912831 -747.10286358 1893.68234863 -758.44921875 1879.84912109 C-760.53860301 1877.28888967 -762.60761357 1874.71399108 -764.66796875 1872.13037109 C-768.20849694 1867.6924417 -771.79284581 1863.29221031 -775.39453125 1858.90380859 C-776.872987 1857.10019419 -778.34718714 1855.29308006 -779.81640625 1853.48193359 C-784.5294627 1847.67993991 -789.34842232 1841.98187614 -794.22802734 1836.3203125 C-797.24002816 1832.81858656 -800.19834048 1829.28277445 -803.10546875 1825.69287109 C-807.72300675 1820.00846511 -812.52216943 1814.49148293 -817.33203125 1808.97021484 C-820.02318038 1805.87953718 -822.68981017 1802.76898298 -825.34765625 1799.6496582 C-830.27838557 1793.86387527 -835.29607373 1788.18341344 -840.43359375 1782.57958984 C-842.96199247 1779.80807586 -845.42980875 1776.98910107 -847.890625 1774.15771484 C-850.72229822 1770.92774033 -853.60999382 1767.74846454 -856.48828125 1764.56005859 C-858.35941969 1762.47430929 -860.20721706 1760.37219481 -862.04296875 1758.25537109 C-865.45614966 1754.33653375 -868.96769013 1750.51034575 -872.48657227 1746.68676758 C-875.34091702 1743.58383897 -878.17126435 1740.46187826 -880.98046875 1737.31787109 C-885.35273839 1732.44591349 -889.81638278 1727.66267659 -894.29077148 1722.88476562 C-897.71840505 1719.22375536 -901.12876543 1715.54820106 -904.51953125 1711.85302734 C-908.83239375 1707.15311308 -913.20384265 1702.54299341 -917.75732422 1698.07397461 C-919.51887245 1696.28203934 -921.14926087 1694.44083813 -922.7734375 1692.52490234 C-927.15917581 1687.47830733 -931.90713464 1682.82014798 -936.66796875 1678.13037109 C-938.39962454 1676.42456091 -940.12883301 1674.71626243 -941.85546875 1673.00537109 C-942.99048828 1671.88775391 -942.99048828 1671.88775391 -944.1484375 1670.74755859 C-946.07037518 1668.75112721 -947.8684288 1666.74272744 -949.66430664 1664.63842773 C-954.98556214 1658.5130381 -960.79937431 1652.85516536 -966.5390625 1647.12646484 C-967.78799255 1645.87685965 -969.03677426 1644.62710616 -970.28541565 1643.37721252 C-972.89186306 1640.76929805 -975.50009169 1638.16318203 -978.10961914 1635.55834961 C-981.43585396 1632.23781144 -984.75757809 1628.91280298 -988.07797146 1625.58642483 C-990.65252698 1623.00823684 -993.2294829 1620.43245865 -995.80714607 1617.85737801 C-997.03214743 1616.6330385 -998.25642094 1615.40797025 -999.47991753 1614.182127 C-1005.19882061 1608.45466106 -1010.9057826 1602.7669004 -1017.06703186 1597.50892639 C-1019.18192579 1595.68780636 -1021.14980379 1593.74534597 -1023.10546875 1591.75537109 C-1023.85570312 1590.99740234 -1024.6059375 1590.23943359 -1025.37890625 1589.45849609 C-1026.90494792 1587.90641276 -1028.43098958 1586.35432943 -1029.95703125 1584.80224609 C-1034.11340895 1580.60301914 -1038.34750559 1576.59822953 -1042.828125 1572.74755859 C-1045.57306617 1570.33480776 -1048.11822607 1567.74599187 -1050.66796875 1565.13037109 C-1054.60187459 1561.14199103 -1058.6072928 1557.33874051 -1062.875 1553.70458984 C-1065.30177755 1551.57388973 -1067.53546869 1549.27501091 -1069.79614258 1546.97094727 C-1071.59321829 1545.2038736 -1073.44383067 1543.55326493 -1075.35546875 1541.91162109 C-1080.4833785 1537.45359468 -1085.38920074 1532.77247838 -1090.3125 1528.09130859 C-1094.40292375 1524.21774461 -1098.55466437 1520.44240719 -1102.81054688 1516.75146484 C-1105.47548243 1514.425601 -1108.06989184 1512.03076824 -1110.66796875 1509.63037109 C-1113.96749652 1506.59068114 -1117.27748482 1503.5687905 -1120.66796875 1500.63037109 C-1124.05847719 1497.69193045 -1127.36763857 1494.66920807 -1130.66796875 1491.63037109 C-1134.62386058 1487.9886922 -1138.61358499 1484.3953761 -1142.67578125 1480.87255859 C-1145.0281751 1478.81536711 -1147.34831841 1476.72440195 -1149.66796875 1474.63037109 C-1157.93086435 1467.18124552 -1166.36908607 1459.94334902 -1174.82128906 1452.7109375 C-1177.7716204 1450.18575967 -1180.7197465 1447.65801069 -1183.66796875 1445.13037109 C-1187.15508182 1442.14072235 -1190.64264701 1439.15161251 -1194.1328125 1436.16552734 C-1195.29041092 1435.17469606 -1196.44796295 1434.18381057 -1197.60546875 1433.19287109 C-1198.46350098 1432.45858887 -1198.46350098 1432.45858887 -1199.33886719 1431.70947266 C-1202.41395069 1429.07442346 -1205.47879997 1426.42833727 -1208.53125 1423.76708984 C-1214.62379994 1418.45653679 -1220.73042536 1413.21740692 -1227.08203125 1408.21630859 C-1230.9377055 1405.10614236 -1234.67298655 1401.85966293 -1238.42382812 1398.62451172 C-1242.85351854 1394.81045689 -1247.35274289 1391.09266169 -1251.890625 1387.40771484 C-1255.01193242 1384.84833056 -1258.09246905 1382.24443318 -1261.16796875 1379.63037109 C-1265.13700418 1376.25753521 -1269.12813896 1372.91860464 -1273.16796875 1369.63037109 C-1277.77045341 1365.88416265 -1282.30519286 1362.06514323 -1286.82543945 1358.22070312 C-1290.30039898 1355.27078205 -1293.81249948 1352.37372703 -1297.35546875 1349.50537109 C-1301.75310971 1345.92870797 -1305.96065032 1342.18712286 -1310.1484375 1338.36865234 C-1312.70001792 1336.10189951 -1315.31968407 1333.95497023 -1317.98046875 1331.81787109 C-1322.79010268 1327.93081857 -1327.31006938 1323.80941391 -1331.81811523 1319.58349609 C-1336.13276264 1315.56257636 -1340.6436202 1311.84339707 -1345.2421875 1308.14990234 C-1348.01382117 1305.84243921 -1350.51739308 1303.37092466 -1353.0234375 1300.78271484 C-1354.67638478 1299.12191508 -1356.39048513 1297.59414718 -1358.16796875 1296.06787109 C-1362.8370525 1292.03999613 -1367.31969334 1287.82023943 -1371.81738281 1283.60351562 C-1375.45872108 1280.19032461 -1379.11546398 1276.79613515 -1382.79736328 1273.42675781 C-1388.33215871 1268.358893 -1393.69785979 1263.17126184 -1398.9375 1257.79833984 C-1401.04007075 1255.74389661 -1403.15530182 1253.82486862 -1405.38134766 1251.91259766 C-1409.40564092 1248.40374604 -1413.21628254 1244.7272755 -1416.984375 1240.94677734 C-1417.6445311 1240.28757797 -1418.30468719 1239.6283786 -1418.98484802 1238.94920349 C-1420.36832381 1237.56640275 -1421.75055958 1236.18236034 -1423.1315918 1234.79711914 C-1425.22528544 1232.69806767 -1427.32426749 1230.60441169 -1429.42382812 1228.51123047 C-1430.77766446 1227.15673324 -1432.1311905 1225.80192578 -1433.484375 1224.44677734 C-1434.10123672 1223.83193985 -1434.71809845 1223.21710236 -1435.35365295 1222.58363342 C-1439.09158196 1218.82587825 -1442.6385875 1214.95101243 -1446.0901947 1210.92832947 C-1448.48740999 1208.19657373 -1451.06475503 1205.66398017 -1453.66796875 1203.13037109 C-1457.58942687 1199.3137648 -1461.24922009 1195.35792652 -1464.82910156 1191.21875 C-1467.965783 1187.65645937 -1471.26546647 1184.25005444 -1474.54296875 1180.81787109 C-1479.81333417 1175.26281668 -1484.84347155 1169.65530602 -1489.60546875 1163.65771484 C-1491.82094679 1160.94291505 -1494.15837342 1158.38503701 -1496.54296875 1155.81787109 C-1500.86837923 1151.12305444 -1504.80810836 1146.22127466 -1508.70703125 1141.17529297 C-1511.2135974 1137.94295555 -1513.77011817 1134.82955965 -1516.54296875 1131.81787109 C-1520.88343337 1127.04336001 -1524.72010793 1121.91152319 -1528.60888672 1116.76953125 C-1532.21470655 1112.00769449 -1535.90176093 1107.32844418 -1539.66796875 1102.69287109 C-1545.81459201 1095.09046864 -1551.51338574 1087.18695222 -1557.17773438 1079.22167969 C-1558.50529322 1077.35866052 -1559.84155367 1075.50250115 -1561.18359375 1073.64990234 C-1572.85955879 1057.49907146 -1583.96594825 1040.94011036 -1594.66796875 1024.13037109 C-1595.38049805 1023.0161377 -1595.38049805 1023.0161377 -1596.10742188 1021.87939453 C-1609.01166976 1001.68994213 -1621.08364554 981.10426681 -1632.66796875 960.13037109 C-1633.21549805 959.14117676 -1633.76302734 958.15198242 -1634.32714844 957.1328125 C-1643.33831536 940.83039587 -1651.74639521 924.43675926 -1659.296875 907.40771484 C-1660.86707547 903.87675995 -1662.49015492 900.37419309 -1664.14025879 896.87988281 C-1668.07434241 888.53625546 -1671.72676725 880.10046505 -1675.23046875 871.56787109 C-1675.52355927 870.85591583 -1675.81664978 870.14396057 -1676.11862183 869.41043091 C-1681.05694395 857.38335785 -1685.71907597 845.26102594 -1690.23046875 833.06787109 C-1690.51979279 832.29047577 -1690.80911682 831.51308044 -1691.10720825 830.71212769 C-1695.09484237 819.96875763 -1698.55521235 809.15763424 -1701.66796875 798.13037109 C-1702.20894549 796.25647386 -1702.75050618 794.38274499 -1703.29296875 792.50927734 C-1703.75198283 790.90400309 -1704.21034576 789.29854246 -1704.66796875 787.69287109 C-1704.8896875 786.91878906 -1705.11140625 786.14470703 -1705.33984375 785.34716797 C-1705.82660797 783.64214107 -1706.3101163 781.93618254 -1706.79101562 780.22949219 C-1707.45564643 777.8807106 -1708.13037676 775.53567851 -1708.81054688 773.19140625 C-1712.11585729 761.68633978 -1714.75614596 750.10239081 -1717.16796875 738.38037109 C-1717.45827972 736.98072113 -1717.45827972 736.98072113 -1717.75445557 735.55279541 C-1723.70814892 706.79915576 -1729.11974382 677.72588553 -1730.45703125 648.33740234 C-1730.60857817 645.18663908 -1730.60857817 645.18663908 -1731.14672852 642.3347168 C-1733.57437328 627.41067111 -1732.85561112 611.92927985 -1732.85327148 596.86230469 C-1732.85319073 594.14218422 -1732.86006555 591.422234 -1732.8737793 588.70214844 C-1732.96273211 570.75308976 -1732.43427393 552.99943513 -1730.66796875 535.13037109 C-1730.58990997 534.33908813 -1730.5118512 533.54780518 -1730.431427 532.73254395 C-1729.97240215 528.2102571 -1729.43560437 523.7014485 -1728.85546875 519.19287109 C-1728.77182068 518.53535858 -1728.68817261 517.87784607 -1728.60198975 517.20040894 C-1720.27385321 452.17107506 -1699.49139054 388.16790551 -1666.12597656 331.61279297 C-1664.78133297 329.32338639 -1663.46529773 327.020581 -1662.16015625 324.70849609 C-1650.21732339 303.70625894 -1635.91017192 283.85831719 -1620.66796875 265.13037109 C-1619.41779736 263.54717308 -1618.16780232 261.9638358 -1616.91796875 260.38037109 C-1612.65015379 255.04351442 -1608.19802427 249.87341305 -1603.734375 244.70068359 C-1601.78567198 242.43991939 -1599.85469975 240.16661581 -1597.9453125 237.87255859 C-1591.44426947 230.06891467 -1584.61864635 222.62738775 -1577.6418457 215.24780273 C-1576.21550143 213.71772433 -1574.80442203 212.17336734 -1573.40307617 210.62036133 C-1565.64292699 202.03069168 -1557.51962232 193.82929164 -1549.32397461 185.65600586 C-1546.97067575 183.30810054 -1544.62281485 180.95485142 -1542.27539062 178.60107422 C-1540.75683117 177.08317513 -1539.23796179 175.56558603 -1537.71875 174.04833984 C-1537.02896561 173.35653122 -1536.33918121 172.6647226 -1535.62849426 171.95195007 C-1531.67303296 168.01524881 -1527.615789 164.25352328 -1523.38708496 160.6113739 C-1521.17058359 158.70187835 -1519.01463939 156.72925388 -1516.85546875 154.75537109 C-1512.48575752 150.81327686 -1507.99433614 147.0561639 -1503.41796875 143.35693359 C-1501.67807129 141.9482098 -1499.94757055 140.52773029 -1498.23046875 139.09130859 C-1471.95921322 117.17122976 -1443.33128066 98.11490252 -1413.66796875 81.13037109 C-1412.93094727 80.70433594 -1412.19392578 80.27830078 -1411.43457031 79.83935547 C-1356.12901768 48.00033796 -1293.26405451 27.87576075 -1230.04296875 19.88037109 C-1228.75132812 19.71698242 -1227.4596875 19.55359375 -1226.12890625 19.38525391 C-1158.5062578 11.26152898 -1089.83725626 19.31737562 -1024.66796875 38.13037109 C-1023.57476318 38.43966553 -1022.48155762 38.74895996 -1021.35522461 39.06762695 C-990.35933451 47.85275571 -960.08434907 58.9916811 -930.66796875 72.13037109 C-929.61287109 72.60152344 -928.55777344 73.07267578 -927.47070312 73.55810547 C-902.45678465 84.79711263 -878.16210955 96.97462212 -854.66796875 111.13037109 C-853.84329102 111.62279297 -853.01861328 112.11521484 -852.16894531 112.62255859 C-813.85886971 135.49801817 -777.98174448 162.72569103 -745.12109375 192.89599609 C-742.95771716 194.86646013 -740.7632827 196.78724731 -738.54296875 198.69287109 C-734.74900719 201.97940981 -731.2435224 205.51667201 -727.74609375 209.11474609 C-725.72411818 211.17196501 -725.72411818 211.17196501 -723.40234375 212.77099609 C-722.83 213.21958984 -722.25765625 213.66818359 -721.66796875 214.13037109 C-721.66796875 214.79037109 -721.66796875 215.45037109 -721.66796875 216.13037109 C-721.13816406 216.33404297 -720.60835937 216.53771484 -720.0625 216.74755859 C-716.6276652 218.73113366 -714.11536125 221.4318866 -711.35546875 224.25537109 C-710.77152344 224.84576172 -710.18757813 225.43615234 -709.5859375 226.04443359 C-706.11581643 229.57652111 -702.80691106 233.19641917 -699.60546875 236.97412109 C-696.90764895 239.97653345 -694.03734892 242.79277458 -691.16796875 245.63037109 C-687.06353161 249.69376386 -683.07362636 253.77992938 -679.33203125 258.18505859 C-677.36657861 260.48270042 -675.33067004 262.70910233 -673.29296875 264.94287109 C-669.41299449 269.24159469 -665.73458602 273.6690228 -662.1015625 278.17724609 C-660.39438255 280.24888019 -658.67501137 282.26915103 -656.890625 284.27099609 C-649.15623851 292.98134258 -642.55909863 302.22500597 -636.12939453 311.93164062 C-634.79131553 313.94479456 -633.43605745 315.94451823 -632.0703125 317.93896484 C-626.66796875 325.87574146 -626.66796875 325.87574146 -626.66796875 328.13037109 C-622.47347829 324.85662244 -619.01332528 321.38184242 -615.55859375 317.34130859 C-609.74299234 310.54041934 -603.63914616 303.99151496 -597.54296875 297.44287109 C-596.96925537 296.82532959 -596.39554199 296.20778809 -595.80444336 295.5715332 C-592.98085555 292.54761646 -590.12388583 289.57622809 -587.17578125 286.67333984 C-584.90545581 284.42325992 -582.77524518 282.12101063 -580.7121582 279.68066406 C-575.57323119 273.77771112 -569.98969564 268.30806587 -564.453125 262.78271484 C-563.27145575 261.60037032 -562.08993484 260.41787752 -560.90855408 259.23524475 C-558.44334152 256.76856575 -555.97634989 254.30368406 -553.50805664 251.84008789 C-550.36342391 248.70115178 -547.22330319 245.55774639 -544.08451176 242.41297054 C-541.64892643 239.97375103 -539.21093886 237.53694369 -536.77224541 235.10083199 C-535.61423036 233.94347832 -534.45694182 232.78539722 -533.30043221 231.62653923 C-527.26273466 225.57927077 -521.1686694 219.68435036 -514.66796875 214.13037109 C-513.2860044 212.85296954 -511.91217788 211.56656384 -510.5546875 210.26318359 C-509.52722412 209.28309326 -509.52722412 209.28309326 -508.47900391 208.28320312 C-507.7782373 207.61401855 -507.0774707 206.94483398 -506.35546875 206.25537109 C-500.80387878 200.98829258 -495.19913327 195.96177976 -489.20703125 191.20068359 C-486.43160889 188.9376469 -483.80178485 186.55644958 -481.16796875 184.13037109 C-475.84157606 179.23523463 -470.29773493 174.66972345 -464.66796875 170.13037109 C-462.98019738 168.7348659 -461.2927032 167.3390254 -459.60546875 165.94287109 C-438.7559001 148.9083299 -417.05394717 133.07866287 -394.66796875 118.13037109 C-393.93400879 117.63972168 -393.20004883 117.14907227 -392.44384766 116.64355469 C-323.64274789 70.8681711 -248.93048535 39.36800108 -140.66796875 14.13037109 C-139.36255127 13.86498535 -139.36255127 13.86498535 -138.03076172 13.59423828 C-112.14360494 8.36912139 -85.70450609 4.7998964 -59.41796875 2.31787109 C-58.23928223 2.20628662 -57.0605957 2.09470215 -55.84619141 1.97973633 C-37.25705874 0.35535522 -18.65199931 -0.03561633 0 0 Z " fill="#131313" transform="translate(2066.66796875,466.86962890625)"/>
<path d="M0 0 C1.16523193 0.19682373 2.33046387 0.39364746 3.53100586 0.59643555 C29.41744814 5.24480361 55.71300349 14.56511959 76.75 30.625 C78.01650391 31.55892578 78.01650391 31.55892578 79.30859375 32.51171875 C106.88366042 53.55700963 123.91092009 84.26268866 132.22509766 117.53417969 C132.70790845 119.4573386 133.21791337 121.37361648 133.73046875 123.2890625 C141.64621044 153.46580836 145.94917843 184.01889937 148.4375 215.0625 C148.49843842 215.81659149 148.55937683 216.57068298 148.62216187 217.34762573 C150.36366971 239.26102525 150.92428642 261.22998386 151.296875 283.203125 C151.31756798 284.38830971 151.33826096 285.57349442 151.35958099 286.79459381 C151.82670265 313.99913672 151.9710447 341.2029412 151.99023438 368.41113281 C151.99465325 373.74193522 152.0083545 379.07257548 152.03125 384.40332031 C152.20925918 426.79612311 151.07477114 468.78101859 145.39501953 510.83447266 C144.92646807 514.31287318 144.46190197 517.79177085 143.99951172 521.27099609 C139.54487131 554.60966041 134.08536125 587.58595404 126.29541016 620.31982422 C125.76148286 622.5764677 125.24350915 624.83618214 124.73046875 627.09765625 C122.38773511 637.3666967 119.66951864 647.50572448 116.75 657.625 C116.54181641 658.35396484 116.33363281 659.08292969 116.11914062 659.83398438 C108.83111843 685.24115099 100.6452252 710.52087617 89.75 734.625 C89.05221436 736.1709082 89.05221436 736.1709082 88.34033203 737.74804688 C79.6397784 756.82938134 69.95476899 775.24531387 56.75 791.625 C55.64205078 793.01912109 55.64205078 793.01912109 54.51171875 794.44140625 C43.49645432 808.12011976 31.68126872 820.87590687 17.75 831.625 C16.24759766 832.79482422 16.24759766 832.79482422 14.71484375 833.98828125 C-25.57435989 864.50093236 -77.76737712 875.51130251 -127.5 869.9375 C-159.28276025 865.24343079 -189.25247637 853.49974233 -215.25 834.625 C-215.8692334 834.18075684 -216.4884668 833.73651367 -217.12646484 833.27880859 C-239.00293006 817.42448289 -258.12847723 796.63832527 -264.25 769.625 C-264.75437328 766.44587661 -265.15722185 763.25557318 -265.5625 760.0625 C-269.30896737 731.09922069 -277.71447767 701.97302944 -297.25 679.625 C-297.83007812 678.94953125 -298.41015625 678.2740625 -299.0078125 677.578125 C-319.03806312 655.90036459 -352.13266222 647.73921801 -380.40234375 644.171875 C-381.85737305 643.98554001 -381.85737305 643.98554001 -383.34179688 643.79544067 C-396.73720527 642.13118083 -410.18243036 640.92834903 -423.6229248 639.69592285 C-426.47425179 639.43328986 -429.32513316 639.16598928 -432.17601776 638.89860344 C-434.97811942 638.63614085 -437.7804157 638.37580731 -440.58277893 638.11615372 C-442.51615089 637.93688284 -444.44942287 637.75653461 -446.38269043 637.57614136 C-453.87220613 636.89072196 -461.35828998 636.32910897 -468.86450195 635.87226868 C-520.26064778 632.11841716 -570.00201357 609.69998816 -611.25 579.625 C-612.15298828 578.96854492 -612.15298828 578.96854492 -613.07421875 578.29882812 C-632.04139642 564.38811773 -649.80950576 548.22482524 -664.25 529.625 C-664.87519531 528.87863281 -665.50039062 528.13226562 -666.14453125 527.36328125 C-697.04786671 490.29186661 -714.0103155 443.38217191 -722.71679688 396.49511719 C-723.06823468 394.60340342 -723.42870651 392.71334242 -723.79882812 390.82519531 C-728.55972353 366.04570095 -729.0968538 336.22521368 -723.25 311.625 C-722.95996094 310.34181885 -722.95996094 310.34181885 -722.6640625 309.03271484 C-715.7819024 279.23657262 -701.7434187 252.533703 -681.73046875 229.5 C-680.11616266 227.62893026 -678.55221587 225.71279907 -677.05078125 223.75 C-676.45652344 223.04875 -675.86226562 222.3475 -675.25 221.625 C-674.59 221.625 -673.93 221.625 -673.25 221.625 C-673.03859375 221.07972656 -672.8271875 220.53445313 -672.609375 219.97265625 C-670.75812194 216.77552093 -668.21395013 214.51352751 -665.5 212.0625 C-664.92000244 211.5351123 -664.34000488 211.00772461 -663.74243164 210.46435547 C-645.8802232 194.41453345 -625.67563919 181.15160168 -605.25 168.625 C-604.32123047 168.05168945 -603.39246094 167.47837891 -602.43554688 166.88769531 C-534.26285243 124.90576799 -460.00750581 95.32878922 -384.5 69.4375 C-383.73343079 69.17464203 -382.96686157 68.91178406 -382.17706299 68.64096069 C-373.06550138 65.5246805 -363.92080863 62.54366594 -354.72070312 59.69946289 C-352.0507345 58.87289199 -349.38617735 58.03480115 -346.7265625 57.17578125 C-324.84370205 50.12401548 -302.74643405 43.60041658 -280.453125 37.9765625 C-276.56954881 36.98910415 -272.72286225 35.90355728 -268.875 34.78515625 C-259.63640374 32.12809305 -250.32440143 29.77275607 -241 27.4375 C-240.05123993 27.19955719 -239.10247986 26.96161438 -238.12496948 26.71646118 C-218.80392931 21.88715642 -199.38233625 17.62860916 -179.8828125 13.58886719 C-175.71998625 12.7255757 -171.56267721 11.83890123 -167.40625 10.9453125 C-143.73632705 5.88874553 -119.88694705 1.80026771 -95.9375 -1.6875 C-94.85460693 -1.84686035 -93.77171387 -2.0062207 -92.65600586 -2.17041016 C-61.98694314 -6.49013061 -30.4709274 -5.15004351 0 0 Z " fill="#131313" transform="translate(2015.25,1522.375)"/>
<path d="M0 0 C22.45976824 19.61029633 36.26369419 46.33895143 42.62109375 75.1875 C42.78480469 75.87118652 42.94851563 76.55487305 43.1171875 77.25927734 C52.95952132 118.95701596 41.41729602 164.42922906 23.62109375 202.1875 C23.26901855 202.93999023 22.91694336 203.69248047 22.55419922 204.46777344 C10.5877373 229.82708551 -5.38908069 252.60388551 -24.37890625 273.1875 C-25.92186712 274.91551192 -27.46353248 276.64468149 -29.00390625 278.375 C-35.09351272 285.12950284 -41.5095904 291.23744522 -48.37890625 297.1875 C-49.32044556 298.00504761 -49.32044556 298.00504761 -50.28100586 298.83911133 C-76.92185378 321.79354022 -107.67709614 339.49171147 -141.10522461 350.43676758 C-142.61595498 350.93558599 -144.12214011 351.44839586 -145.62329102 351.9753418 C-151.04072281 353.86159466 -156.43628562 355.16848276 -162.06640625 356.25 C-162.86240234 356.41048828 -163.65839844 356.57097656 -164.47851562 356.73632812 C-177.0273365 359.20251313 -189.26552295 360.57325501 -202.06640625 360.5 C-202.76611542 360.49751251 -203.46582458 360.49502502 -204.18673706 360.49246216 C-229.79961491 360.35217053 -253.91630459 354.78364943 -276.37890625 342.1875 C-277.45398437 341.61128906 -278.5290625 341.03507812 -279.63671875 340.44140625 C-286.8927535 336.42367857 -293.13368407 331.62451696 -299.37890625 326.1875 C-300.6628125 325.1046875 -300.6628125 325.1046875 -301.97265625 324 C-325.76482629 303.4388654 -342.1585768 270.29064003 -344.55450439 238.88583374 C-344.7864099 234.04431653 -344.80716945 229.20773175 -344.77001953 224.36157227 C-344.75398379 221.88696632 -344.76994639 219.41400912 -344.7890625 216.93945312 C-344.80864701 202.21600426 -342.90416528 187.76033271 -339.19140625 173.5 C-338.98346436 172.69151611 -338.77552246 171.88303223 -338.5612793 171.05004883 C-328.30539647 132.37124352 -310.93464799 94.21601881 -285.37890625 63.1875 C-284.93111816 62.63819824 -284.48333008 62.08889648 -284.02197266 61.52294922 C-273.06901087 48.15630034 -261.07789967 35.75698199 -247.37890625 25.1875 C-246.39921875 24.40246094 -245.41953125 23.61742187 -244.41015625 22.80859375 C-210.46934427 -4.20248054 -170.42208754 -20.31960406 -128.37890625 -29.8125 C-127.61078613 -29.99329102 -126.84266602 -30.17408203 -126.05126953 -30.36035156 C-82.27899962 -40.42087327 -34.15413403 -28.85315877 0 0 Z " fill="#131313" transform="translate(2620.37890625,1678.8125)"/>
<path d="M0 0 C0.98081543 0.25692627 0.98081543 0.25692627 1.98144531 0.51904297 C23.38343332 6.24052975 41.18537584 18.92397092 57 34 C57.7940625 34.72960937 58.588125 35.45921875 59.40625 36.2109375 C89.4242269 64.64345788 104.69453206 112.01284848 106.20654297 152.45776367 C106.3264887 157.13875751 106.33348752 161.81777888 106.3125 166.5 C106.31100952 167.32771912 106.30951904 168.15543823 106.3079834 169.00823975 C106.26336132 182.8560677 105.40248323 196.34105437 103 210 C102.86078125 210.82951172 102.7215625 211.65902344 102.578125 212.51367188 C101.57491098 218.38897618 100.35427372 224.19612031 99 230 C98.7736084 230.97630371 98.5472168 231.95260742 98.31396484 232.95849609 C92.82288866 256.08625657 84.24246535 278.06452792 73 299 C72.59313965 299.77359863 72.1862793 300.54719727 71.76708984 301.34423828 C61.14956513 321.51320798 48.49769566 340.00974829 33.02734375 356.78515625 C31.22726728 358.75171378 29.5191193 360.76540802 27.8125 362.8125 C6.75605103 386.88396013 -22.07616443 405.11339131 -51.83203125 416.18798828 C-53.59568414 416.84856368 -55.34682508 417.54247121 -57.09375 418.24609375 C-87.09091337 429.58325697 -124.96181122 428.48153055 -154.2890625 415.765625 C-190.57601371 399.36046591 -216.69942997 370.30047524 -231.03076172 333.34179688 C-253.96592502 272.1390651 -247.07412185 199.60129187 -220.953125 140.48583984 C-213.86367925 124.94531674 -205.86474436 109.96671716 -196 96 C-195.35417969 95.07960938 -194.70835938 94.15921875 -194.04296875 93.2109375 C-179.50717138 72.85508714 -161.90770713 53.2518724 -142 38 C-140.8227685 37.07050013 -139.6456953 36.14079973 -138.46875 35.2109375 C-99.1949379 4.57956596 -49.74169975 -13.82482568 0 0 Z " fill="#131313" transform="translate(2122,976)"/>
<path d="M0 0 C37.29284329 31.74514759 57.1817358 74.92874406 61.65942383 123.6027832 C62.03706467 129.61735342 62.03378438 135.63969929 62.0234375 141.6640625 C62.02250092 142.36992493 62.02156433 143.07578735 62.02059937 143.80303955 C61.82443211 212.33402056 36.47891895 282.4952572 -10.68359375 332.74609375 C-12.72686866 334.94382094 -14.67555052 337.17747314 -16.6015625 339.4765625 C-46.07148257 373.27618647 -91.50097759 399.00624636 -136.1640625 403.4140625 C-149.82029441 404.32912725 -162.8749755 403.70428661 -176.1640625 400.4140625 C-177.98357422 400.01380859 -177.98357422 400.01380859 -179.83984375 399.60546875 C-214.59540775 391.34781099 -243.94363004 367.70002315 -262.52734375 337.6484375 C-295.16719002 282.96029832 -294.2147609 220.40781862 -279.1640625 160.4140625 C-277.40847404 153.66306977 -275.37507935 147.02854422 -273.1640625 140.4140625 C-272.88900879 139.57311035 -272.61395508 138.7321582 -272.33056641 137.86572266 C-265.47710589 117.12752995 -256.40292064 96.56133492 -244.1640625 78.4140625 C-243.5453125 77.4446875 -242.9265625 76.4753125 -242.2890625 75.4765625 C-233.28781798 61.53915163 -222.64815312 49.33871925 -211.1640625 37.4140625 C-210.41125 36.62 -209.6584375 35.8259375 -208.8828125 35.0078125 C-204.54553955 30.52833388 -199.862423 26.58580107 -194.99609375 22.69140625 C-193.18007026 21.23107288 -191.3835687 19.74592156 -189.61328125 18.23046875 C-181.64715171 11.44898366 -173.03155104 5.92039178 -164.1640625 0.4140625 C-163.47538086 -0.02083496 -162.78669922 -0.45573242 -162.07714844 -0.90380859 C-112.51113196 -32.09845906 -48.022532 -38.06828167 0 0 Z " fill="#131313" transform="translate(2510.1640625,1253.5859375)"/>
<path d="M0 0 C1.09242004 0.00223572 1.09242004 0.00223572 2.20690918 0.0045166 C13.01453649 0.04430074 23.31136126 0.54019937 33.8125 3.3125 C34.88886719 3.57933594 35.96523437 3.84617187 37.07421875 4.12109375 C71.40972176 13.62353923 99.97487929 37.71950454 117.66015625 68.27734375 C133.94175811 97.03230839 141.81517504 129.36212033 142.8125 162.3125 C142.83973145 163.04307617 142.86696289 163.77365234 142.89501953 164.52636719 C143.58903605 185.1722675 140.84847865 205.66471043 136.37158203 225.79248047 C135.7719914 228.4950894 135.19647342 231.20229598 134.62109375 233.91015625 C132.3121131 244.61376756 129.71154841 255.06011148 125.8125 265.3125 C125.46026367 266.2396582 125.10802734 267.16681641 124.74511719 268.12207031 C119.73287752 281.19336637 114.44671065 293.9801743 107.8125 306.3125 C107.31314941 307.26697021 107.31314941 307.26697021 106.80371094 308.24072266 C98.19765649 324.66564268 87.18954972 339.53527612 74.8125 353.3125 C74.26980469 353.91690918 73.72710938 354.52131836 73.16796875 355.14404297 C60.52606437 369.13075489 47.00237926 381.15461581 31.8125 392.3125 C31.2335498 392.73805176 30.65459961 393.16360352 30.05810547 393.60205078 C0.75160293 414.94550003 -31.44855905 428.51689659 -67.9375 428.625 C-68.64278839 428.62876648 -69.34807678 428.63253296 -70.07473755 428.63641357 C-82.11364593 428.66896488 -93.85509947 427.66765101 -105.4375 424.1875 C-106.49457153 423.87099487 -106.49457153 423.87099487 -107.57299805 423.5480957 C-120.46990466 419.49576166 -132.3087274 413.3209259 -143.1875 405.3125 C-144.39019531 404.44431641 -144.39019531 404.44431641 -145.6171875 403.55859375 C-182.42741728 375.6190259 -200.20224003 332.58184211 -206.82788086 287.97241211 C-216.37299908 217.37223358 -192.88257142 142.53051237 -150.1875 86.3125 C-145.52383342 80.24601738 -140.62362793 74.45583704 -135.4609375 68.80859375 C-133.96930459 67.17087308 -132.49459219 65.51754577 -131.0390625 63.84765625 C-116.31380188 47.0225841 -98.44914311 33.53740551 -79.1875 22.3125 C-78.5879248 21.95849121 -77.98834961 21.60448242 -77.37060547 21.23974609 C-53.79678282 7.46518726 -27.26989729 -0.13787541 0 0 Z " fill="#131313" transform="translate(1683.1875,1077.6875)"/>
<path d="M0 0 C0.33 0.66 0.66 1.32 1 2 C0.01196289 4.24658203 0.01196289 4.24658203 -1.52734375 7.0078125 C-2.34428711 8.48701172 -2.34428711 8.48701172 -3.17773438 9.99609375 C-3.75845703 11.02863281 -4.33917969 12.06117188 -4.9375 13.125 C-5.51435547 14.16527344 -6.09121094 15.20554687 -6.68554688 16.27734375 C-8.11660809 18.85561933 -9.55500894 21.42951339 -11 24 C-11.99 23.34 -12.98 22.68 -14 22 C-14.33 22.33 -14.66 22.66 -15 23 C-16.66617115 23.04063832 -18.33388095 23.042721 -20 23 C-15.70208775 17.96829785 -11.36354439 12.97481678 -7 8 C-5.6873185 6.50015883 -4.37481268 5.00016389 -3.0625 3.5 C-2.04166667 2.33333333 -1.02083333 1.16666667 0 0 Z " fill="#161616" transform="translate(1599,2239)"/>
<path d="M0 0 C4.52615993 3.67832017 8.39424999 7.41086363 12 12 C11.01 13.485 11.01 13.485 10 15 C7.5625 14.375 7.5625 14.375 5 13 C4.1875 9.875 4.1875 9.875 4 7 C3.360625 6.896875 2.72125 6.79375 2.0625 6.6875 C1.381875 6.460625 0.70125 6.23375 0 6 C-1 3 -1 3 0 0 Z " fill="#1B1B1B" transform="translate(1244,2120)"/>
<path d="M0 0 C0.99 0.33 1.98 0.66 3 1 C0.68982348 3.31017652 -1.80577911 5.31315174 -4.34375 7.3671875 C-6.12253762 9.12080359 -6.91505757 10.77423827 -8 13 C-8.680625 13.33 -9.36125 13.66 -10.0625 14 C-11.0215625 14.495 -11.0215625 14.495 -12 15 C-12.36162029 16.32594105 -12.69728039 17.65938457 -13 19 C-13.99 19.33 -14.98 19.66 -16 20 C-16 16 -16 16 -14.53125 14.07714844 C-13.8609375 13.4277832 -13.190625 12.77841797 -12.5 12.109375 C-11.778125 11.40039062 -11.05625 10.69140625 -10.3125 9.9609375 C-9.549375 9.23132813 -8.78625 8.50171875 -8 7.75 C-7.236875 7.00492188 -6.47375 6.25984375 -5.6875 5.4921875 C-3.80031094 3.65217816 -1.90443371 1.82212773 0 0 Z " fill="#0B0B0B" transform="translate(524,646)"/>
<path d="M0 0 C0.33 0.66 0.66 1.32 1 2 C-0.07674702 4.28258633 -1.19546116 6.4356434 -2.4375 8.625 C-2.77587891 9.23601563 -3.11425781 9.84703125 -3.46289062 10.4765625 C-4.30146192 11.988353 -5.14982577 13.49470399 -6 15 C-6.99 14.67 -7.98 14.34 -9 14 C-11.14255793 14.38932856 -11.14255793 14.38932856 -13 15 C-8.70214922 9.96836982 -4.36574458 4.97281557 0 0 Z " fill="#262626" transform="translate(1599,2239)"/>
<path d="M0 0 C0.56203125 0.25652344 1.1240625 0.51304687 1.703125 0.77734375 C1.703125 1.43734375 1.703125 2.09734375 1.703125 2.77734375 C1.14625 3.00421875 0.589375 3.23109375 0.015625 3.46484375 C-2.52706382 4.75482641 -2.52706382 4.75482641 -4.796875 7.46484375 C-5.621875 8.22796875 -6.446875 8.99109375 -7.296875 9.77734375 C-9.453125 9.421875 -9.453125 9.421875 -11.296875 8.77734375 C-9.89609102 7.241869 -8.47566597 5.72429227 -7.046875 4.21484375 C-5.86351562 2.94447266 -5.86351562 2.94447266 -4.65625 1.6484375 C-2.296875 -0.22265625 -2.296875 -0.22265625 0 0 Z " fill="#161616" transform="translate(1466.296875,770.22265625)"/>
<path d="M0 0 C4.28806873 0.47645208 6.26647487 1.65902484 9 5 C9 5.66 9 6.32 9 7 C7.02 7.66 5.04 8.32 3 9 C2 6 1 3 0 0 Z " fill="#161616" transform="translate(722,1662)"/>
<path d="M0 0 C5.08938811 1.59043379 8.87456643 4.7446951 13 8 C11.125 8.625 11.125 8.625 9 9 C8.34 8.34 7.68 7.68 7 7 C4.67724823 6.59952556 2.34260643 6.2602896 0 6 C0.33 5.01 0.66 4.02 1 3 C0.34 2.67 -0.32 2.34 -1 2 C-0.67 1.34 -0.34 0.68 0 0 Z " fill="#191919" transform="translate(834,1761)"/>
<path d="M0 0 C5.75 -0.125 5.75 -0.125 8 1 C8.625 3.5625 8.625 3.5625 9 6 C8.01 5.67 7.02 5.34 6 5 C7.32 5.66 8.64 6.32 10 7 C10 7.66 10 8.32 10 9 C6.71245489 8.42110619 5.06327505 7.45171589 2.75 5.0625 C2.22921875 4.53785156 1.7084375 4.01320313 1.171875 3.47265625 C0 2 0 2 0 0 Z " fill="#0D0D0D" transform="translate(1140,2153)"/>
<path d="M0 0 C-0.45375 0.5775 -0.9075 1.155 -1.375 1.75 C-2.84113516 3.7800333 -3.94857784 5.73539843 -5 8 C-6.65 7.67 -8.3 7.34 -10 7 C-9.9375 4.6875 -9.9375 4.6875 -9 2 C-2.7826087 -1.39130435 -2.7826087 -1.39130435 0 0 Z " fill="#191919" transform="translate(1513,1639)"/>
<path d="M0 0 C3.21524305 1.40844718 5.32183868 3.10344786 7.75 5.625 C8.67039062 6.57246094 8.67039062 6.57246094 9.609375 7.5390625 C10.29773437 8.26222656 10.29773437 8.26222656 11 9 C10.34 9.66 9.68 10.32 9 11 C7 9.625 7 9.625 5 8 C5 7.34 5 6.68 5 6 C4.34 6 3.68 6 3 6 C3 6.66 3 7.32 3 8 C2.34 8 1.68 8 1 8 C1.33 6.02 1.66 4.04 2 2 C1.34 2 0.68 2 0 2 C0 1.34 0 0.68 0 0 Z " fill="#191919" transform="translate(2497,639)"/>
<path d="M0 0 C2 1 2 1 3.2890625 4.30859375 C3.74210268 5.68237148 4.18708349 7.05882681 4.625 8.4375 C4.85445312 9.13166016 5.08390625 9.82582031 5.3203125 10.54101562 C7 15.70505487 7 15.70505487 7 18 C6.01 17.67 5.02 17.34 4 17 C3.87625 16.030625 3.7525 15.06125 3.625 14.0625 C3.41875 13.051875 3.2125 12.04125 3 11 C2.34 10.67 1.68 10.34 1 10 C0.5859375 7.71484375 0.5859375 7.71484375 0.375 4.9375 C0.30023437 4.01839844 0.22546875 3.09929687 0.1484375 2.15234375 C0.09945312 1.44207031 0.05046875 0.73179688 0 0 Z " fill="#222222" transform="translate(578,1394)"/>
<path d="M0 0 C3.21524305 1.40844718 5.32183868 3.10344786 7.75 5.625 C8.67039062 6.57246094 8.67039062 6.57246094 9.609375 7.5390625 C10.29773437 8.26222656 10.29773437 8.26222656 11 9 C10.34 9.66 9.68 10.32 9 11 C8.5875 10.54625 8.175 10.0925 7.75 9.625 C6.09958248 7.89448376 6.09958248 7.89448376 3.9375 7.1875 C1.0620873 5.42515028 0.82299686 3.1548213 0 0 Z " fill="#1F1F1F" transform="translate(1198,2074)"/>
<path d="M0 0 C7.48291572 6.15034169 7.48291572 6.15034169 10 10 C9.01 10 8.02 10 7 10 C6.67 10.66 6.34 11.32 6 12 C3 7.25 3 7.25 3 5 C2.34 5 1.68 5 1 5 C1 4.34 1 3.68 1 3 C0.34 2.67 -0.32 2.34 -1 2 C-0.67 1.34 -0.34 0.68 0 0 Z " fill="#242424" transform="translate(1188,2063)"/>
<path d="M0 0 C2.31 1.98 4.62 3.96 7 6 C5 9 5 9 2.375 9.6875 C1.59125 9.790625 0.8075 9.89375 0 10 C0 6.66666667 0 3.33333333 0 0 Z " fill="#1F1F1F" transform="translate(1347,684)"/>
<path d="M0 0 C1.37562854 1.28965176 2.70766393 2.62689293 4 4 C4 4.66 4 5.32 4 6 C6.39068734 7.10636395 6.39068734 7.10636395 9 8 C9.66 7.67 10.32 7.34 11 7 C10.34 8.65 9.68 10.3 9 12 C7.8944811 11.06409496 6.79064547 10.12620142 5.6875 9.1875 C5.07261719 8.66542969 4.45773437 8.14335937 3.82421875 7.60546875 C2.14575321 6.12827531 0.56117966 4.59960869 -1 3 C-0.67 2.01 -0.34 1.02 0 0 Z " fill="#282828" transform="translate(1046,2057)"/>
<path d="M0 0 C0.66 0 1.32 0 2 0 C2 0.66 2 1.32 2 2 C2.99 2.33 3.98 2.66 5 3 C4.34 4.98 3.68 6.96 3 9 C1.35 7.68 -0.3 6.36 -2 5 C-1.34 3.35 -0.68 1.7 0 0 Z " fill="#1D1D1D" transform="translate(946,1961)"/>
<path d="M0 0 C2.912575 0.08566397 4.56798024 0.57910955 6.66796875 2.625 C8.16091772 4.38391375 9.60436262 6.16313019 11 8 C12.32 7.67 13.64 7.34 15 7 C15.33 7.66 15.66 8.32 16 9 C14.35 9.66 12.7 10.32 11 11 C9.16365304 9.35742342 7.3308593 7.71117305 5.5 6.0625 C4.97535156 5.59392578 4.45070313 5.12535156 3.91015625 4.64257812 C2.5878256 3.44904592 1.29166061 2.22665821 0 1 C0 0.67 0 0.34 0 0 Z " fill="#1B1B1B" transform="translate(725,1777)"/>
<path d="M0 0 C0 0.33 0 0.66 0 1 C-0.804375 1.12375 -1.60875 1.2475 -2.4375 1.375 C-3.7059375 1.684375 -3.7059375 1.684375 -5 2 C-5.33 2.66 -5.66 3.32 -6 4 C-9.0625 4.625 -9.0625 4.625 -12 5 C-12.33 4.01 -12.66 3.02 -13 2 C-11.5882217 1.46605821 -10.17029756 0.94834896 -8.75 0.4375 C-7.96109375 0.14746094 -7.1721875 -0.14257812 -6.359375 -0.44140625 C-3.80896548 -1.04522837 -2.44677771 -0.8473932 0 0 Z " fill="#1F1F1F" transform="translate(2469,1657)"/>
<path d="M0 0 C4.67692308 1.47692308 4.67692308 1.47692308 6.3125 4.125 C6.539375 4.74375 6.76625 5.3625 7 6 C6.01 6.99 5.02 7.98 4 9 C0 4.5 0 4.5 0 0 Z " fill="#1A1A1A" transform="translate(593,1644)"/>
<path d="M0 0 C0.7425 0.0825 1.485 0.165 2.25 0.25 C1.5 2.6875 1.5 2.6875 0.25 5.25 C-1.6875 6.1875 -1.6875 6.1875 -3.75 6.25 C-4.74 5.59 -5.73 4.93 -6.75 4.25 C-3.42692308 0.31153846 -3.42692308 0.31153846 0 0 Z " fill="#1B1B1B" transform="translate(548.75,624.75)"/>
<path d="M0 0 C0 1.32 0 2.64 0 4 C0.350625 4.680625 0.70125 5.36125 1.0625 6.0625 C2 8 2 8 1 11 C-1.5625 8.75 -1.5625 8.75 -4 6 C-3.8125 3.6875 -3.8125 3.6875 -3 2 C-3.66 1.67 -4.32 1.34 -5 1 C-2 0 -2 0 0 0 Z " fill="#1D1D1D" transform="translate(886,1905)"/>
<path d="M0 0 C0.66 0.66 1.32 1.32 2 2 C1.34 4.31 0.68 6.62 0 9 C-0.33 8.34 -0.66 7.68 -1 7 C-1.66 7 -2.32 7 -3 7 C-3 7.99 -3 8.98 -3 10 C-3.99 10.33 -4.98 10.66 -6 11 C-4.54955729 6.89041233 -2.48889248 3.56741255 0 0 Z " fill="#1B1B1B" transform="translate(2270,1326)"/>
<path d="M0 0 C1.33333333 0.33333333 2.66666667 0.66666667 4 1 C5.0828125 1.185625 5.0828125 1.185625 6.1875 1.375 C6.785625 1.58125 7.38375 1.7875 8 2 C8.33 2.99 8.66 3.98 9 5 C9.66 5.33 10.32 5.66 11 6 C10.01 6.33 9.02 6.66 8 7 C6.66666667 6 5.33333333 5 4 4 C3.01 4.33 2.02 4.66 1 5 C0.67 3.35 0.34 1.7 0 0 Z " fill="#1F1F1F" transform="translate(1336,678)"/>
<path d="M0 0 C0.33 1.32 0.66 2.64 1 4 C-0.3125 5.75 -0.3125 5.75 -2 7 C-2.66 7 -3.32 7 -4 7 C-4.33 8.65 -4.66 10.3 -5 12 C-5.33 11.34 -5.66 10.68 -6 10 C-6.66 9.67 -7.32 9.34 -8 9 C-5.36 6.03 -2.72 3.06 0 0 Z " fill="#1E1E1E" transform="translate(459,716)"/>
<path d="M0 0 C2.475 0.99 2.475 0.99 5 2 C5 2.99 5 3.98 5 5 C3.02 5.99 3.02 5.99 1 7 C1 7.66 1 8.32 1 9 C0.01 9 -0.98 9 -2 9 C-1.34 6.03 -0.68 3.06 0 0 Z " fill="#1D1D1D" transform="translate(1298,1812)"/>
<path d="M0 0 C3.21524305 1.40844718 5.32183868 3.10344786 7.75 5.625 C8.67039062 6.57246094 8.67039062 6.57246094 9.609375 7.5390625 C10.29773438 8.26222656 10.29773438 8.26222656 11 9 C7.47967572 9 6.5614657 8.29648649 4 6 C4 5.34 4 4.68 4 4 C2.02 4 0.04 4 -2 4 C-1.34 2.68 -0.68 1.36 0 0 Z " fill="#0B0B0B" transform="translate(744,1683)"/>
<path d="M0 0 C1 3 1 3 0 6 C-3.0625 7.1875 -3.0625 7.1875 -6 8 C-6 6.68 -6 5.36 -6 4 C-3 1.75 -3 1.75 0 0 Z " fill="#1D1D1D" transform="translate(1653,598)"/>
<path d="M0 0 C0.66 0 1.32 0 2 0 C2 0.66 2 1.32 2 2 C2.9590625 2.1546875 2.9590625 2.1546875 3.9375 2.3125 C4.618125 2.539375 5.29875 2.76625 6 3 C6.33 3.99 6.66 4.98 7 6 C6.34 6.66 5.68 7.32 5 8 C3.02 6.35 1.04 4.7 -1 3 C-0.67 2.01 -0.34 1.02 0 0 Z " fill="#1D1D1D" transform="translate(1532,1473)"/>
<path d="M0 0 C0.33 1.98 0.66 3.96 1 6 C0.01 6 -0.98 6 -2 6 C-4.1875 3 -4.1875 3 -6 0 C-3.50907189 -1.24546405 -2.58919267 -0.7767578 0 0 Z " fill="#1A1A1A" transform="translate(1518,1455)"/>
<path d="M0 0 C2.97 0.495 2.97 0.495 6 1 C6 1.99 6 2.98 6 4 C4 5.6875 4 5.6875 2 7 C0 5 0 5 -0.125 2.375 C-0.08375 1.59125 -0.0425 0.8075 0 0 Z " fill="#1B1B1B" transform="translate(1746,1434)"/>
<path d="M0 0 C0.66 0.33 1.32 0.66 2 1 C2 2.32 2 3.64 2 5 C3.32 5.66 4.64 6.32 6 7 C5.01 7.66 4.02 8.32 3 9 C1.35 7.35 -0.3 5.7 -2 4 C-1.34 2.68 -0.68 1.36 0 0 Z " fill="#1C1C1C" transform="translate(965,1979)"/>
<path d="M0 0 C2.66666667 1.33333333 5.33333333 2.66666667 8 4 C8 5.65 8 7.3 8 9 C6.84775972 8.07038578 5.70340824 7.1309875 4.5625 6.1875 C3.60537109 5.40439453 3.60537109 5.40439453 2.62890625 4.60546875 C1 3 1 3 0 0 Z " fill="#1D1D1D" transform="translate(648,1704)"/>
<path d="M0 0 C0 0.66 0 1.32 0 2 C-1.65 2.33 -3.3 2.66 -5 3 C-5 3.66 -5 4.32 -5 5 C-9.455 5.495 -9.455 5.495 -14 6 C-10.292996 2.7563715 -5.02493834 0 0 0 Z " fill="#212121" transform="translate(2442,1665)"/>
<path d="M0 0 C0.33 0.66 0.66 1.32 1 2 C1.66 2.33 2.32 2.66 3 3 C2.01 3.33 1.02 3.66 0 4 C0 5.32 0 6.64 0 8 C-2 9.75 -2 9.75 -4 11 C-3.835 10.401875 -3.67 9.80375 -3.5 9.1875 C-2.8885876 6.88655664 -2.8885876 6.88655664 -3 4 C-1.5 1.8125 -1.5 1.8125 0 0 Z " fill="#1C1C1C" transform="translate(1539,1156)"/>
<path d="M0 0 C0 0.99 0 1.98 0 3 C-2.3125 4.5625 -2.3125 4.5625 -5 6 C-5.99 6.66 -6.98 7.32 -8 8 C-9.32 7.67 -10.64 7.34 -12 7 C-8.04 4.69 -4.08 2.38 0 0 Z " fill="#1F1F1F" transform="translate(646,552)"/>
<path d="M0 0 C1.32 0.66 2.64 1.32 4 2 C2.35 3.98 0.7 5.96 -1 8 C-3 5 -3 5 -3 2 C-2.01 1.34 -1.02 0.68 0 0 Z " fill="#1A1A1A" transform="translate(1076,1960)"/>
<path d="M0 0 C2.09350689 3.4019487 2.17942163 6.05272412 2 10 C0.68 10.33 -0.64 10.66 -2 11 C-1.42415568 8.61435923 -0.77772405 6.33317216 0 4 C-0.66 3.67 -1.32 3.34 -2 3 C-1.34 2.01 -0.68 1.02 0 0 Z " fill="#212121" transform="translate(2155,1677)"/>
<path d="M0 0 C0.33 0.99 0.66 1.98 1 3 C-1.64 5.64 -4.28 8.28 -7 11 C-7.66 10.34 -8.32 9.68 -9 9 C-8.01 8.67 -7.02 8.34 -6 8 C-5.67 7.34 -5.34 6.68 -5 6 C-4 4 -4 4 -1 3 C-0.67 2.01 -0.34 1.02 0 0 Z " fill="#2C2C2C" transform="translate(2149,1336)"/>
<path d="M0 0 C2.475 0.99 2.475 0.99 5 2 C4.67 3.65 4.34 5.3 4 7 C2.35 5.68 0.7 4.36 -1 3 C-0.67 2.01 -0.34 1.02 0 0 Z " fill="#1A1A1A" transform="translate(953,1970)"/>
<path d="M0 0 C4.12751449 0.60698743 7.3321148 2.03810791 11 4 C10.01 4.99 9.02 5.98 8 7 C7.01 6.34 6.02 5.68 5 5 C4.34 4.67 3.68 4.34 3 4 C3.33 3.34 3.66 2.68 4 2 C2.68 1.34 1.36 0.68 0 0 Z " fill="#1D1D1D" transform="translate(1737,1089)"/>
<path d="M0 0 C0.66 0 1.32 0 2 0 C3.28006797 1.78398614 4.47660351 3.62853906 5.625 5.5 C6.57246094 7.03140625 6.57246094 7.03140625 7.5390625 8.59375 C8.02117187 9.3878125 8.50328125 10.181875 9 11 C5.25366514 9.75122171 3.58958203 7.93952555 1 5 C1 4.01 1 3.02 1 2 C0.34 1.67 -0.32 1.34 -1 1 C-0.67 0.67 -0.34 0.34 0 0 Z " fill="#1B1B1B" transform="translate(1420,766)"/>
<path d="M0 0 C3.35595828 0.59927826 5.37801226 1.84622436 8 4 C7.67 4.66 7.34 5.32 7 6 C4.03 5.505 4.03 5.505 1 5 C0.67 3.35 0.34 1.7 0 0 Z " fill="#1B1B1B" transform="translate(2392,558)"/>
<path d="M0 0 C-0.7109375 1.921875 -0.7109375 1.921875 -2 4 C-4.1640625 4.828125 -4.1640625 4.828125 -6.625 5.25 C-7.85089844 5.47429688 -7.85089844 5.47429688 -9.1015625 5.703125 C-9.72804688 5.80109375 -10.35453125 5.8990625 -11 6 C-3.8 0 -3.8 0 0 0 Z " fill="#1B1B1B" transform="translate(666,542)"/>
<path d="M0 0 C0.66 0.33 1.32 0.66 2 1 C0.63016497 4.16115776 0.0109362 4.9927092 -3 7 C-3.66 5.68 -4.32 4.36 -5 3 C-4.01 3 -3.02 3 -2 3 C-2 2.34 -2 1.68 -2 1 C-1.34 0.67 -0.68 0.34 0 0 Z " fill="#1B1B1B" transform="translate(2046,2338)"/>
<path d="M0 0 C2.5 1.125 2.5 1.125 5 3 C5.3125 6.1875 5.3125 6.1875 5 9 C2.5 7.3125 2.5 7.3125 0 5 C-0.3125 2.25 -0.3125 2.25 0 0 Z " fill="#1A1A1A" transform="translate(1130,2140)"/>
<path d="M0 0 C2.76276177 0.52268466 5.3260876 1.10869587 8 2 C9.1875 4.5625 9.1875 4.5625 10 7 C8.70359622 6.40606618 7.41301161 5.79942011 6.125 5.1875 C5.40570312 4.85105469 4.68640625 4.51460937 3.9453125 4.16796875 C2 3 2 3 0 0 Z " fill="#222222" transform="translate(1025,2040)"/>
<path d="M0 0 C0.66 0.99 1.32 1.98 2 3 C1.34 3 0.68 3 0 3 C-0.33 4.32 -0.66 5.64 -1 7 C-2.65 6.67 -4.3 6.34 -6 6 C-4 4 -2 2 0 0 Z " fill="#1A1A1A" transform="translate(2373,1704)"/>
<path d="M0 0 C1.1875 1.5625 1.1875 1.5625 2 4 C0.625 7.75 0.625 7.75 -1 11 C-1.33 11 -1.66 11 -2 11 C-2.96891192 5.62694301 -2.96891192 5.62694301 -3 3 C-1.5625 1 -1.5625 1 0 0 Z " fill="#1A1A1A" transform="translate(2573,1084)"/>
<path d="M0 0 C0.66 0.33 1.32 0.66 2 1 C1.43628586 4.26954202 0.50037734 5.82575883 -2 8 C-2.99 7.67 -3.98 7.34 -5 7 C-3.35 4.69 -1.7 2.38 0 0 Z " fill="#202020" transform="translate(1933,1062)"/>
<path d="M0 0 C1.65 0 3.3 0 5 0 C3.50902342 3.7952131 1.24299151 5.61042731 -2 8 C-1.33333333 5.33333333 -0.66666667 2.66666667 0 0 Z " fill="#1D1D1D" transform="translate(1562,857)"/>
<path d="M0 0 C1.98 0.66 3.96 1.32 6 2 C6 3.65 6 5.3 6 7 C5.01 7 4.02 7 3 7 C1.79371992 4.66785852 0.8345262 2.50357861 0 0 Z " fill="#1D1D1D" transform="translate(2424,812)"/>
<path d="M0 0 C0.33 1.32 0.66 2.64 1 4 C-0.32 4.99 -1.64 5.98 -3 7 C-3.66 5.68 -4.32 4.36 -5 3 C-4.34 3 -3.68 3 -3 3 C-3 2.34 -3 1.68 -3 1 C-2.01 0.67 -1.02 0.34 0 0 Z " fill="#1B1B1B" transform="translate(701,789)"/>
<path d="M0 0 C0.33 0.66 0.66 1.32 1 2 C0.34 1.67 -0.32 1.34 -1 1 C-0.67 0.67 -0.34 0.34 0 0 Z M-5 1 C-3.68 1.33 -2.36 1.66 -1 2 C-0.67 3.32 -0.34 4.64 0 6 C0.66 6 1.32 6 2 6 C1.67 6.99 1.34 7.98 1 9 C-0.00596297 8.0479279 -1.00461563 7.08812654 -2 6.125 C-2.556875 5.59132813 -3.11375 5.05765625 -3.6875 4.5078125 C-5 3 -5 3 -5 1 Z " fill="#222222" transform="translate(2406,789)"/>
<path d="M0 0 C-0.33 1.98 -0.66 3.96 -1 6 C-2.98 4.68 -4.96 3.36 -7 2 C-4.35261084 0.5393715 -3.10551666 0 0 0 Z " fill="#1A1A1A" transform="translate(934,1949)"/>
<path d="M0 0 C0.33 0.66 0.66 1.32 1 2 C3.02463255 2.65213292 3.02463255 2.65213292 5 3 C4.67 4.32 4.34 5.64 4 7 C1.96166576 5.7260411 -0.03852126 4.38938077 -2 3 C-2 2.34 -2 1.68 -2 1 C-1.34 0.67 -0.68 0.34 0 0 Z " fill="#202020" transform="translate(835,1867)"/>
<path d="M0 0 C0.66 0 1.32 0 2 0 C3.32 2.31 4.64 4.62 6 7 C5.34 7.66 4.68 8.32 4 9 C3.67 8.01 3.34 7.02 3 6 C2.34 5.67 1.68 5.34 1 5 C0.67 5.66 0.34 6.32 0 7 C0 4.69 0 2.38 0 0 Z " fill="#1C1C1C" transform="translate(2634,1695)"/>
<path d="M0 0 C0.99 0.33 1.98 0.66 3 1 C2.375 3.4375 2.375 3.4375 1 6 C-2.125 6.8125 -2.125 6.8125 -5 7 C-3.35 4.69 -1.7 2.38 0 0 Z " fill="#212121" transform="translate(2284,1307)"/>
<path d="M0 0 C0.33 0 0.66 0 1 0 C0.67 5.28 0.34 10.56 0 16 C-0.33 16 -0.66 16 -1 16 C-1.66 13.36 -2.32 10.72 -3 8 C-2.34 8 -1.68 8 -1 8 C-0.67 5.36 -0.34 2.72 0 0 Z " fill="#515151" transform="translate(2611,924)"/>
<path d="M0 0 C0.66 0.33 1.32 0.66 2 1 C2.625 3.0625 2.625 3.0625 3 5 C0 6 0 6 -4 6 C-4 5.01 -4 4.02 -4 3 C-2 1.3125 -2 1.3125 0 0 Z " fill="#EDEDED" transform="translate(1656,785)"/>
<path d="M0 0 C0.33 0.99 0.66 1.98 1 3 C0.01 3.33 -0.98 3.66 -2 4 C-2 4.66 -2 5.32 -2 6 C-3.65 6 -5.3 6 -7 6 C-2.25 1.125 -2.25 1.125 0 0 Z M-9 6 C-8.34 6 -7.68 6 -7 6 C-7.33 6.66 -7.66 7.32 -8 8 C-8.33 7.34 -8.66 6.68 -9 6 Z " fill="#1C1C1C" transform="translate(1675,583)"/>
<path d="M0 0 C0 0.66 0 1.32 0 2 C-1.60049704 2.39036513 -3.20562371 2.76178619 -4.8125 3.125 C-5.70582031 3.33382813 -6.59914063 3.54265625 -7.51953125 3.7578125 C-10 4 -10 4 -13 2 C-11.58461283 1.66127487 -10.16762037 1.32925376 -8.75 1 C-7.56664062 0.7215625 -7.56664062 0.7215625 -6.359375 0.4375 C-4 0 -4 0 0 0 Z " fill="#333333" transform="translate(798,494)"/>
<path d="M0 0 C1.98 1.65 3.96 3.3 6 5 C5.67 5.99 5.34 6.98 5 8 C4.67 7.34 4.34 6.68 4 6 C3.34 6 2.68 6 2 6 C2 5.34 2 4.68 2 4 C1.01 4 0.02 4 -1 4 C-0.67 2.68 -0.34 1.36 0 0 Z " fill="#202020" transform="translate(1292,2172)"/>
<path d="M0 0 C2.475 0.495 2.475 0.495 5 1 C5.33 2.98 5.66 4.96 6 7 C3.95880212 5.38405168 1.95927063 3.7143618 0 2 C0 1.34 0 0.68 0 0 Z " fill="#1F1F1F" transform="translate(705,1758)"/>
<path d="M0 0 C0.66 0 1.32 0 2 0 C2.66 1.98 3.32 3.96 4 6 C2.35 6.66 0.7 7.32 -1 8 C-0.67 5.36 -0.34 2.72 0 0 Z " fill="#1C1C1C" transform="translate(1685,1481)"/>
<path d="M0 0 C1.32 0 2.64 0 4 0 C3.6875 1.875 3.6875 1.875 3 4 C2.01 4.66 1.02 5.32 0 6 C-0.38218767 4.34385343 -0.71395102 2.67542976 -1 1 C-0.67 0.67 -0.34 0.34 0 0 Z " fill="#1B1B1B" transform="translate(1740,1443)"/>
<path d="M0 0 C0.99 0.66 1.98 1.32 3 2 C2.34 3.65 1.68 5.3 1 7 C-0.32 6.34 -1.64 5.68 -3 5 C-2.01 3.35 -1.02 1.7 0 0 Z M3 0 C5 1 5 1 5 1 Z " fill="#E6E6E6" transform="translate(1458,984)"/>
<path d="M0 0 C1.32 0.66 2.64 1.32 4 2 C0.535 4.97 0.535 4.97 -3 8 C-3 7.01 -3 6.02 -3 5 C-2.34 5 -1.68 5 -1 5 C-0.67 3.35 -0.34 1.7 0 0 Z " fill="#222222" transform="translate(677,811)"/>
<path d="M0 0 C2.31 0.33 4.62 0.66 7 1 C7.33 2.32 7.66 3.64 8 5 C5 5 5 5 2.3125 2.5 C1.549375 1.675 0.78625 0.85 0 0 Z " fill="#1C1C1C" transform="translate(1256,762)"/>
<path d="M0 0 C0.33 1.32 0.66 2.64 1 4 C-3.75 5.125 -3.75 5.125 -6 4 C-2.25 0 -2.25 0 0 0 Z M2 1 C2.33 1.66 2.66 2.32 3 3 C2.34 2.67 1.68 2.34 1 2 C1.33 1.67 1.66 1.34 2 1 Z " fill="#202020" transform="translate(1546,688)"/>
<path d="M0 0 C0 0.99 0 1.98 0 3 C-3.96 4.98 -3.96 4.98 -8 7 C-4.5 0 -4.5 0 0 0 Z " fill="#0E0E0E" transform="translate(1554,682)"/>
<path d="M0 0 C0 0.66 0 1.32 0 2 C-7.28571429 5.42857143 -7.28571429 5.42857143 -12 5 C-8.45976076 2.63984051 -4.36489861 0 0 0 Z " fill="#292929" transform="translate(1805,516)"/>
<path d="M0 0 C0.99 1.32 1.98 2.64 3 4 C2.01 5.98 1.02 7.96 0 10 C-2 6.25 -2 6.25 -2 4 C-1.34 4 -0.68 4 0 4 C0 2.68 0 1.36 0 0 Z " fill="#1B1B1B" transform="translate(1548,2333)"/>
<path d="M0 0 C0.66 0.33 1.32 0.66 2 1 C2 1.66 2 2.32 2 3 C0.35 3 -1.3 3 -3 3 C-3.33 4.32 -3.66 5.64 -4 7 C-4.99 6.34 -5.98 5.68 -7 5 C-2.25 1.125 -2.25 1.125 0 0 Z " fill="#101010" transform="translate(1590,2252)"/>
<path d="M0 0 C0 3 0 3 -2.375 5.5 C-3.24125 6.325 -4.1075 7.15 -5 8 C-5.66 8.99 -6.32 9.98 -7 11 C-7.33 10.01 -7.66 9.02 -8 8 C-5.36 5.36 -2.72 2.72 0 0 Z " fill="#E3E3E3" transform="translate(2578,1969)"/>
<path d="M0 0 C-3.83325617 2.70582788 -6.32538149 3.32613618 -11 3 C-7.68381684 -0.31618316 -4.50821267 -1.6697084 0 0 Z " fill="#202020" transform="translate(1550,1624)"/>
<path d="M0 0 C4.55015893 1.51671964 6.50057264 5.16891053 9 9 C5.18063472 7.44396229 2.73955562 5.04395069 0 2 C0 1.34 0 0.68 0 0 Z " fill="#0C0C0C" transform="translate(1518,1461)"/>
<path d="M0 0 C-1.36983503 3.16115776 -1.9890638 3.9927092 -5 6 C-7.1875 5.625 -7.1875 5.625 -9 5 C-7.87926138 4.16094435 -6.75325453 3.32892169 -5.625 2.5 C-4.99851562 2.0359375 -4.37203125 1.571875 -3.7265625 1.09375 C-2 0 -2 0 0 0 Z " fill="#202020" transform="translate(2337,1261)"/>
<path d="M0 0 C0.99 0 1.98 0 3 0 C3.99 1.98 4.98 3.96 6 6 C4.35 5.67 2.7 5.34 1 5 C0.67 3.35 0.34 1.7 0 0 Z " fill="#191919" transform="translate(1793,1138)"/>
<path d="M0 0 C2.31 0.33 4.62 0.66 7 1 C7 1.66 7 2.32 7 3 C7.99 3 8.98 3 10 3 C9.67 3.99 9.34 4.98 9 6 C6.03 4.35 3.06 2.7 0 1 C0 0.67 0 0.34 0 0 Z " fill="#222222" transform="translate(1196,724)"/>
<path d="M0 0 C0.66 0.33 1.32 0.66 2 1 C1.34 2.65 0.68 4.3 0 6 C-2.31 6 -4.62 6 -7 6 C-4.74259377 3.66475218 -2.7194239 1.81294927 0 0 Z " fill="#1E1E1E" transform="translate(1663,591)"/>
<path d="M0 0 C2.4375 0.75 2.4375 0.75 5 2 C5.8125 4.125 5.8125 4.125 6 6 C3 6 3 6 1.3125 4.6875 C0 3 0 3 0 0 Z " fill="#1E1E1E" transform="translate(1231,2252)"/>
<path d="M0 0 C2.76262553 0.3810518 3.84143894 0.83597132 5.8125 2.875 C6.204375 3.57625 6.59625 4.2775 7 5 C6.67 5.99 6.34 6.98 6 8 C4.9970458 6.85675161 3.99770973 5.71032809 3 4.5625 C2.443125 3.92441406 1.88625 3.28632813 1.3125 2.62890625 C0 1 0 1 0 0 Z " fill="#212121" transform="translate(1176,2192)"/>
<path d="M0 0 C0.99 0.33 1.98 0.66 3 1 C1.35 2.98 -0.3 4.96 -2 7 C-3 4 -3 4 -2 1 C-1.34 0.67 -0.68 0.34 0 0 Z " fill="#222222" transform="translate(2589,1955)"/>
<path d="M0 0 C0.66 0.99 1.32 1.98 2 3 C-0.97 5.475 -0.97 5.475 -4 8 C-4.66 7.67 -5.32 7.34 -6 7 C-4.02 4.69 -2.04 2.38 0 0 Z " fill="#232323" transform="translate(2339,1737)"/>
<path d="M0 0 C1.875 0.3125 1.875 0.3125 4 1 C4.66 1.99 5.32 2.98 6 4 C4.02 4.99 4.02 4.99 2 6 C1.34 4.02 0.68 2.04 0 0 Z " fill="#1C1C1C" transform="translate(768,1706)"/>
<path d="M0 0 C0.33 0.99 0.66 1.98 1 3 C1.66 3.33 2.32 3.66 3 4 C1.68 5.32 0.36 6.64 -1 8 C-1.93065133 5.39417629 -2.14917407 4.35801776 -1.0625 1.75 C-0.711875 1.1725 -0.36125 0.595 0 0 Z " fill="#1A1A1A" transform="translate(2525,1546)"/>
<path d="M0 0 C2.46800047 1.15173355 4.04783565 2.04783565 6 4 C3 5 3 5 -0.1875 3.5625 C-1.115625 3.046875 -2.04375 2.53125 -3 2 C-2.01 1.34 -1.02 0.68 0 0 Z " fill="#1B1B1B" transform="translate(1965,1387)"/>
<path d="M0 0 C0.33 0.99 0.66 1.98 1 3 C-0.375 4.5 -0.375 4.5 -2 6 C-2.66 6 -3.32 6 -4 6 C-4.66 6.66 -5.32 7.32 -6 8 C-6 5 -6 5 -4.6875 3.61328125 C-3.125 2.40885417 -1.5625 1.20442708 0 0 Z " fill="#1F1F1F" transform="translate(1979,1015)"/>
<path d="M0 0 C0.66 0.33 1.32 0.66 2 1 C1 3 0 5 -1 7 C-2.65 6.67 -4.3 6.34 -6 6 C-4 4 -2 2 0 0 Z " fill="#222222" transform="translate(1623,620)"/>
<path d="M0 0 C0.625 1.875 0.625 1.875 1 4 C0.34 4.66 -0.32 5.32 -1 6 C-1.99 6 -2.98 6 -4 6 C-4.33 5.01 -4.66 4.02 -5 3 C-3.35 2.01 -1.7 1.02 0 0 Z " fill="#1C1C1C" transform="translate(1697,569)"/>
<path d="M0 0 C0.66 0.66 1.32 1.32 2 2 C2.66 1.67 3.32 1.34 4 1 C2.25 4.875 2.25 4.875 0 6 C-0.99 5.34 -1.98 4.68 -3 4 C-2.01 2.68 -1.02 1.36 0 0 Z " fill="#1F1F1F" transform="translate(1518,2341)"/>
<path d="M0 0 C1.98 0.99 1.98 0.99 4 2 C4 2.99 4 3.98 4 5 C3.01 5.66 2.02 6.32 1 7 C0.67 4.69 0.34 2.38 0 0 Z " fill="#232323" transform="translate(1248,2125)"/>
<path d="M0 0 C0.66 0 1.32 0 2 0 C2 0.66 2 1.32 2 2 C2.99 1.67 3.98 1.34 5 1 C5.66 2.65 6.32 4.3 7 6 C4 6 4 6 1.8125 4.125 C0 2 0 2 0 0 Z " fill="#191919" transform="translate(691,1745)"/>
<path d="M0 0 C0.66 0 1.32 0 2 0 C2.6875 1.6875 2.6875 1.6875 3 4 C1.5625 6.75 1.5625 6.75 0 9 C-1.10844919 5.67465243 -0.84454356 3.37817425 0 0 Z " fill="#323232" transform="translate(1480,1281)"/>
<path d="M0 0 C0.33 1.32 0.66 2.64 1 4 C-1.97 6.475 -1.97 6.475 -5 9 C-5.66 8.34 -6.32 7.68 -7 7 C-5.824375 6.6596875 -5.824375 6.6596875 -4.625 6.3125 C-1.78125 5.21875 -1.78125 5.21875 -0.6875 2.375 C-0.460625 1.59125 -0.23375 0.8075 0 0 Z " fill="#1B1B1B" transform="translate(2538,1139)"/>
<path d="M0 0 C0 0.66 0 1.32 0 2 C-3.07322544 2.91058531 -5.80097361 3.08886184 -9 3 C-9 2.34 -9 1.68 -9 1 C-5.846632 0.29925156 -3.27275026 0 0 0 Z " fill="#272727" transform="translate(1659,1080)"/>
<path d="M0 0 C0 0.99 0 1.98 0 3 C-4.455 2.01 -4.455 2.01 -9 1 C-9 0.67 -9 0.34 -9 0 C-3.375 -1.125 -3.375 -1.125 0 0 Z " fill="#2B2B2B" transform="translate(2256,705)"/>
<path d="M0 0 C3.36591866 1.44253657 5.51047079 3.33264727 8 6 C7.67 6.66 7.34 7.32 7 8 C5.35 6.35 3.7 4.7 2 3 C1.01 3.495 1.01 3.495 0 4 C-0.33 3.01 -0.66 2.02 -1 1 C-0.67 0.67 -0.34 0.34 0 0 Z " fill="#0A0A0A" transform="translate(1360,699)"/>
<path d="M0 0 C1.32 0.33 2.64 0.66 4 1 C4.33 2.65 4.66 4.3 5 6 C4.01 6.495 4.01 6.495 3 7 C0 3.375 0 3.375 0 0 Z " fill="#1D1D1D" transform="translate(1306,648)"/>
<path d="M0 0 C1.32 0 2.64 0 4 0 C4 0.66 4 1.32 4 2 C1.69 3.32 -0.62 4.64 -3 6 C-2.42655063 3.13275314 -2.1385485 2.1385485 0 0 Z " fill="#1A1A1A" transform="translate(2028,2353)"/>
<path d="M0 0 C3.73639216 1.24546405 4.18756513 2.63404953 6 6 C3.625 5.75 3.625 5.75 1 5 C-0.3125 2.9375 -0.3125 2.9375 -1 1 C-0.67 0.67 -0.34 0.34 0 0 Z " fill="#1D1D1D" transform="translate(1419,2327)"/>
<path d="M0 0 C1.32 0.33 2.64 0.66 4 1 C3.01 2.485 3.01 2.485 2 4 C-0.625 4.1875 -0.625 4.1875 -3 4 C-2.01 2.68 -1.02 1.36 0 0 Z " fill="#202020" transform="translate(1582,2258)"/>
<path d="M0 0 C3.99996286 1.33332095 4.83782337 3.4957827 7 7 C6.01 7.495 6.01 7.495 5 8 C2.5 5.6875 2.5 5.6875 0 3 C0 2.01 0 1.02 0 0 Z " fill="#1C1C1C" transform="translate(1342,2231)"/>
<path d="M0 0 C0.66 0.33 1.32 0.66 2 1 C0.95125002 3.62187494 0.35068687 4.79371361 -2.125 6.25 C-2.74375 6.4975 -3.3625 6.745 -4 7 C-3.67 5.68 -3.34 4.36 -3 3 C-2.01 3 -1.02 3 0 3 C0 2.01 0 1.02 0 0 Z " fill="#222222" transform="translate(2582,1962)"/>
<path d="M0 0 C0.99 0 1.98 0 3 0 C2.45773019 3.79588866 0.79872437 5.47211993 -2 8 C-2 6.68 -2 5.36 -2 4 C-1.34 4 -0.68 4 0 4 C0 2.68 0 1.36 0 0 Z " fill="#1C1C1C" transform="translate(2604,1937)"/>
<path d="M0 0 C1.65 0 3.3 0 5 0 C5 0.99 5 1.98 5 3 C4.01 3.495 4.01 3.495 3 4 C2.67 4.66 2.34 5.32 2 6 C1.34 5.34 0.68 4.68 0 4 C0 2.68 0 1.36 0 0 Z " fill="#1E1E1E" transform="translate(870,1897)"/>
<path d="M0 0 C2.01920337 1.30406884 4.01924973 2.63823419 6 4 C6 4.33 6 4.66 6 5 C4.02 5 2.04 5 0 5 C-0.33 4.01 -0.66 3.02 -1 2 C-0.67 1.34 -0.34 0.68 0 0 Z " fill="#1E1E1E" transform="translate(994,1889)"/>
<path d="M0 0 C0.66 0 1.32 0 2 0 C2.33 0.99 2.66 1.98 3 3 C1.6875 5.1875 1.6875 5.1875 0 7 C-0.66 7 -1.32 7 -2 7 C-1.34 4.69 -0.68 2.38 0 0 Z " fill="#222222" transform="translate(2296,1808)"/>
<path d="M0 0 C0.99 0.66 1.98 1.32 3 2 C2.67 3.65 2.34 5.3 2 7 C0.68 6.34 -0.64 5.68 -2 5 C-1.34 3.35 -0.68 1.7 0 0 Z " fill="#1C1C1C" transform="translate(1316,1775)"/>
<path d="M0 0 C0.33 0.99 0.66 1.98 1 3 C-1.64 3.33 -4.28 3.66 -7 4 C-3.375 0 -3.375 0 0 0 Z " fill="#1D1D1D" transform="translate(2396,1689)"/>
<path d="M0 0 C1.9375 0.8125 1.9375 0.8125 4 2 C4.33 2.99 4.66 3.98 5 5 C4.01 5.33 3.02 5.66 2 6 C2 5.34 2 4.68 2 4 C0.35 4 -1.3 4 -3 4 C-3 3.34 -3 2.68 -3 2 C-2.01 2 -1.02 2 0 2 C0 1.34 0 0.68 0 0 Z " fill="#0D0D0D" transform="translate(2442,1665)"/>
<path d="M0 0 C4.875 4.75 4.875 4.75 6 7 C3.03824877 6.38722388 1.61941217 5.74627478 -1 4 C-0.67 2.68 -0.34 1.36 0 0 Z " fill="#212121" transform="translate(707,1641)"/>
<path d="M0 0 C0.66 0 1.32 0 2 0 C2.33 1.32 2.66 2.64 3 4 C2.01 4.33 1.02 4.66 0 5 C-0.33 5.66 -0.66 6.32 -1 7 C-1.625 5.1875 -1.625 5.1875 -2 3 C-1.34 2.01 -0.68 1.02 0 0 Z " fill="#191919" transform="translate(388,1321)"/>
<path d="M0 0 C0.33 0 0.66 0 1 0 C1.6875 2.8125 1.6875 2.8125 2 6 C0.6875 7.875 0.6875 7.875 -1 9 C-1.66 9 -2.32 9 -3 9 C-2.01 6.03 -1.02 3.06 0 0 Z " fill="#2B2B2B" transform="translate(1900,1119)"/>
<path d="M0 0 C0.66 0.99 1.32 1.98 2 3 C1.1875 4.9375 1.1875 4.9375 0 7 C-0.99 7.33 -1.98 7.66 -3 8 C-1.125 2.25 -1.125 2.25 0 0 Z " fill="#1E1E1E" transform="translate(1911,1096)"/>
<path d="M0 0 C-3.465 2.97 -3.465 2.97 -7 6 C-6.75 3.625 -6.75 3.625 -6 1 C-2.69333333 -1.34666667 -2.69333333 -1.34666667 0 0 Z " fill="#0D0D0D" transform="translate(1586,841)"/>
<path d="M0 0 C2.475 0.495 2.475 0.495 5 1 C5.66 2.98 6.32 4.96 7 7 C5.82780457 6.21654285 4.66236332 5.42297164 3.5 4.625 C2.8503125 4.18414063 2.200625 3.74328125 1.53125 3.2890625 C1.0259375 2.86367188 0.520625 2.43828125 0 2 C0 1.34 0 0.68 0 0 Z " fill="#1D1D1D" transform="translate(1281,781)"/>
<path d="M0 0 C0.33 0.66 0.66 1.32 1 2 C-1.3125 4.5 -1.3125 4.5 -4 7 C-4.99 7 -5.98 7 -7 7 C-4.69 4.69 -2.38 2.38 0 0 Z " fill="#2F2F2F" transform="translate(1474,759)"/>
<path d="M0 0 C0.66 0 1.32 0 2 0 C2.33 0.66 2.66 1.32 3 2 C5.02463255 2.65213292 5.02463255 2.65213292 7 3 C6.67 3.99 6.34 4.98 6 6 C3.69 5.01 1.38 4.02 -1 3 C-0.67 2.01 -0.34 1.02 0 0 Z " fill="#212121" transform="translate(2295,720)"/>
<path d="M0 0 C3.16115776 1.36983503 3.9927092 1.9890638 6 5 C5.01 5.495 5.01 5.495 4 6 C2 4.6875 2 4.6875 0 3 C0 2.01 0 1.02 0 0 Z " fill="#232323" transform="translate(2502,644)"/>
<path d="M0 0 C0.99 0.33 1.98 0.66 3 1 C2.43628586 4.26954202 1.50037734 5.82575883 -1 8 C-0.67 5.36 -0.34 2.72 0 0 Z " fill="#1B1B1B" transform="translate(2073,2305)"/>
<path d="M0 0 C0.66 0.66 1.32 1.32 2 2 C1.67 2.99 1.34 3.98 1 5 C-0.65 5.33 -2.3 5.66 -4 6 C-2.68 4.02 -1.36 2.04 0 0 Z " fill="#212121" transform="translate(1545,2303)"/>
<path d="M0 0 C0 3.38023517 -0.87455622 5.83468937 -2 9 C-2.33 8.01 -2.66 7.02 -3 6 C-3.66 5.67 -4.32 5.34 -5 5 C-3.35 3.35 -1.7 1.7 0 0 Z " fill="#202020" transform="translate(1578,2263)"/>
<path d="M0 0 C0.33 0 0.66 0 1 0 C0.67 2.64 0.34 5.28 0 8 C-0.99 8 -1.98 8 -3 8 C-1.125 2.25 -1.125 2.25 0 0 Z " fill="#1F1F1F" transform="translate(1308,1789)"/>
<path d="M0 0 C1.98 0 3.96 0 6 0 C5.34 1.65 4.68 3.3 4 5 C2 3.625 2 3.625 0 2 C0 1.34 0 0.68 0 0 Z " fill="#1B1B1B" transform="translate(632,1688)"/>
<path d="M0 0 C2.375 0.3125 2.375 0.3125 5 1 C5.66 1.99 6.32 2.98 7 4 C5.35 4 3.7 4 2 4 C1.34 2.68 0.68 1.36 0 0 Z " fill="#202020" transform="translate(722,1662)"/>
<path d="M0 0 C0.66 0 1.32 0 2 0 C2 0.66 2 1.32 2 2 C2.99 2.33 3.98 2.66 5 3 C4.67 4.32 4.34 5.64 4 7 C2 5.1875 2 5.1875 0 3 C0 2.01 0 1.02 0 0 Z " fill="#0B0B0B" transform="translate(602,1655)"/>
<path d="M0 0 C0.66 0.99 1.32 1.98 2 3 C0.02 3.99 -1.96 4.98 -4 6 C-3.6875 4.125 -3.6875 4.125 -3 2 C-2.01 1.34 -1.02 0.68 0 0 Z " fill="#1D1D1D" transform="translate(2323,1270)"/>
<path d="M0 0 C0.99 0.33 1.98 0.66 3 1 C0.64031256 3.09749995 -0.54616994 3.96905704 -3.75 4.1875 C-4.86375 4.0946875 -4.86375 4.0946875 -6 4 C-4.03617993 2.49440461 -2.21736634 1.10868317 0 0 Z " fill="#2A2A2A" transform="translate(2367,1242)"/>
<path d="M0 0 C-0.99 0.33 -1.98 0.66 -3 1 C-3 1.66 -3 2.32 -3 3 C-5.97 2.505 -5.97 2.505 -9 2 C-4 -1.33333333 -4 -1.33333333 0 0 Z " fill="#262626" transform="translate(2390,1235)"/>
<path d="M0 0 C0.99 0.33 1.98 0.66 3 1 C2 3 1 5 0 7 C-0.66 7 -1.32 7 -2 7 C-1.34 4.69 -0.68 2.38 0 0 Z " fill="#191919" transform="translate(372,856)"/>
<path d="M0 0 C0.66 0.99 1.32 1.98 2 3 C1.01 4.98 0.02 6.96 -1 9 C-1.66 9 -2.32 9 -3 9 C-2.01 6.03 -1.02 3.06 0 0 Z " fill="#272727" transform="translate(377,844)"/>
<path d="M0 0 C0 0.99 0 1.98 0 3 C0.66 3 1.32 3 2 3 C1.67 3.99 1.34 4.98 1 6 C-0.65 4.35 -2.3 2.7 -4 1 C-2 0 -2 0 0 0 Z " fill="#252525" transform="translate(1350,843)"/>
<path d="M0 0 C0 1.65 0 3.3 0 5 C-0.99 5 -1.98 5 -3 5 C-3.33 3.68 -3.66 2.36 -4 1 C-1 0 -1 0 0 0 Z " fill="#1C1C1C" transform="translate(2439,825)"/>
<path d="M0 0 C2.46800047 1.15173355 4.04783565 2.04783565 6 4 C5.67 4.99 5.34 5.98 5 7 C3.29115995 5.37660195 1.62553283 3.70680947 0 2 C0 1.34 0 0.68 0 0 Z " fill="#202020" transform="translate(1328,824)"/>
<path d="M0 0 C0.99 0.99 1.98 1.98 3 3 C1.03533587 4.06775224 -0.96855359 5.06553465 -3 6 C-3.66 5.67 -4.32 5.34 -5 5 C-3.35 3.35 -1.7 1.7 0 0 Z " fill="#202020" transform="translate(1452,783)"/>
<path d="M0 0 C1.32 0 2.64 0 4 0 C3.34 1.32 2.68 2.64 2 4 C0.35 4 -1.3 4 -3 4 C-1.75 2 -1.75 2 0 0 Z " fill="#262626" transform="translate(1458,776)"/>
<path d="M0 0 C1.65 0 3.3 0 5 0 C5.33 0.99 5.66 1.98 6 3 C6.66 3.66 7.32 4.32 8 5 C5 5 5 5 2.3125 2.5 C1.549375 1.675 0.78625 0.85 0 0 Z " fill="#212121" transform="translate(1270,773)"/>
<path d="M0 0 C3.55780196 0.60990891 6.6828589 1.5783681 10 3 C10 3.66 10 4.32 10 5 C6.08788267 3.84414715 3.1254959 2.64465038 0 0 Z " fill="#232323" transform="translate(2313,731)"/>
<path d="M0 0 C-0.33 1.32 -0.66 2.64 -1 4 C-0.01 4.33 0.98 4.66 2 5 C0.02 5 -1.96 5 -4 5 C-4 3.68 -4 2.36 -4 1 C-2 0 -2 0 0 0 Z " fill="#1D1D1D" transform="translate(1757,537)"/>
</svg>
